<svg id="Layer_1" data-name="Layer 1" xmlns="http://www.w3.org/2000/svg" viewBox="0 0 78.26 66.5"><title>speedometer-17</title><path d="M50.85,43,54,46.58l-.8,0c-4.43,0-8,1.69-8,5.32,0,2.93,3.6,5.33,8,5.33s8-2.4,8-5.33S57.61,45.33,55.74,43Zm6.2,8.74c0,1.51-1.71,2.75-3.82,2.75s-3.84-1.24-3.84-2.75S51.12,49,53.23,49,57.05,50.26,57.05,51.78Z"/><path d="M40.15,52.57c0,2.91-4.77,2.91-4.77,0v-5.7h-4.1V53c0,5.95,12.88,6,12.88,0V46.87h-4Z"/><rect x="62.21" y="46.87" width="4.41" height="10.3"/><path d="M17.22,43.4l1.42,1.74-7.92,12h4.76L16.77,55h9.05l1.35,2.13h5L22.62,43.4Zm1.25,8.83,2.72-4.5L24,52.23Z"/><path d="M64.81,10.22a13.55,13.55,0,0,0-8.49,2.84,13.58,13.58,0,0,0-16.57,0,13.59,13.59,0,0,0-16.54,0,13.63,13.63,0,1,0,0,21.65,13.55,13.55,0,0,0,16.55,0,13.56,13.56,0,0,0,16.57,0,13.63,13.63,0,1,0,8.46-24.45Zm-.35,25.7a12.13,12.13,0,0,1-8.12-3.29,12.1,12.1,0,0,1-8.45,3.31,12,12,0,0,1-8.1-3.28A12.24,12.24,0,0,1,31.31,36a12.11,12.11,0,0,1-8.08-3.25,13.14,13.14,0,0,1-1.21,1A12,12,0,0,1,14.8,36a12.11,12.11,0,0,1-11-7.39,6.09,6.09,0,0,1-1.24-.23A13.16,13.16,0,0,1,14.5,10.77a6.84,6.84,0,0,1,.57,1.06h.06a12.09,12.09,0,0,1,8.28,3.47l-.1-1.7A13.15,13.15,0,0,1,31,10.76a5.73,5.73,0,0,1,.62,1.06,12.58,12.58,0,0,1,8.29,3.44l-.09-1.62a12.92,12.92,0,0,1,7.76-2.89,5.9,5.9,0,0,1,.57,1.05h.06a12.57,12.57,0,0,1,8.29,3.53l-.11-1.72a13.13,13.13,0,0,1,7.76-2.9,10.61,10.61,0,0,0,.63,1.06C71.27,12.08,76.44,16,76.71,24,76.91,30.67,71.11,36,64.46,35.92Z"/><path d="M19.11,28.35a12.77,12.77,0,0,1-.78-4.63,13,13,0,0,1,2.83-7.95c.67,0,1.35,0,1.73,0A11.39,11.39,0,1,0,12.46,35l.56-.71a11.68,11.68,0,0,0,1.8.18,10.55,10.55,0,0,0,6.48-2.14l1.59,0a12.19,12.19,0,0,1-2.55-3.81A6,6,0,0,1,19.11,28.35Zm-4.28,5.59a10,10,0,1,1,5.81-18.3,13.56,13.56,0,0,0,0,16.51A10.49,10.49,0,0,1,14.83,33.94Z"/><path d="M25,20.65a2.1,2.1,0,0,1,.62-.87,9.76,9.76,0,0,0-2.41-3.7,11.34,11.34,0,0,0-.91,14.64,9.58,9.58,0,0,0,.92,1.07l0-1.45a10,10,0,0,0,2.26-6.28A10.59,10.59,0,0,0,25,20.65Zm-1.8,9a9.89,9.89,0,0,1-1.79-5.83,10,10,0,0,1,1.77-5.57,10,10,0,0,1,0,11.4Z"/><path d="M41.53,20.63a2.1,2.1,0,0,1,.62-.87,10.61,10.61,0,0,0-2.38-3.68,11.26,11.26,0,0,0-3.1,7.65,11.4,11.4,0,0,0,3.16,8l0-1.35A11.9,11.9,0,0,0,42,24,10.4,10.4,0,0,0,41.53,20.63Zm-1.76,8.9a10,10,0,0,1,0-11.29,10,10,0,0,1,0,11.29Z"/><path d="M52.25,28.3a13.13,13.13,0,0,1,2.06-12.58H56a11.55,11.55,0,0,0-7.8-3.25,11.4,11.4,0,0,0-8,3.13,12,12,0,0,1,3.32,8.45,12.2,12.2,0,0,1-3.27,8.12A11.24,11.24,0,0,0,45.55,35c.17-.23.37-.48.56-.72a10.66,10.66,0,0,0,1.8.18,11.39,11.39,0,0,0,6.6-2.15l1.45,0a12.5,12.5,0,0,1-2.47-3.73A5.48,5.48,0,0,1,52.25,28.3Zm-4.33,5.6a10.09,10.09,0,0,1-5.6-1.78,13.59,13.59,0,0,0,0-16.46,9.86,9.86,0,0,1,5.88-1.82,10,10,0,0,1,5.57,1.79,13.58,13.58,0,0,0,0,16.47A10.59,10.59,0,0,1,47.92,33.9Z"/><path d="M75.31,19.73c-.91-3.22-5.47-7.28-10.53-7.28a11.42,11.42,0,0,0-8,3.12,12,12,0,0,1,0,16.6A11.53,11.53,0,0,0,62.12,35l.57-.72a9.62,9.62,0,0,0,1.79.19A10.56,10.56,0,0,0,74.69,20.59,2,2,0,0,1,75.31,19.73ZM64.49,33.88a10,10,0,0,1-5.58-1.78,13.58,13.58,0,0,0,0-16.47,9.92,9.92,0,0,1,5.87-1.82,10,10,0,1,1-.27,20.07Z"/><path d="M58.11,20.61a2.13,2.13,0,0,1,.62-.86,9.56,9.56,0,0,0-2.41-3.7,11.39,11.39,0,0,0,.13,15.74l0-1.39A10.07,10.07,0,0,0,58.64,24,10.72,10.72,0,0,0,58.11,20.61Zm-1.77,8.91a10,10,0,0,1-1.75-5.8,10.1,10.1,0,0,1,1.73-5.51,9.91,9.91,0,0,1,0,11.31Z"/><path d="M35.69,28.33a13.44,13.44,0,0,1-.78-4.63,13.14,13.14,0,0,1,2.84-8l1.63,0a11.3,11.3,0,0,0-15.68-.1A11.93,11.93,0,0,1,27,24.08a12.08,12.08,0,0,1-3.34,8.15A11.55,11.55,0,0,0,29,35c.18-.23.36-.47.57-.72a9.61,9.61,0,0,0,1.79.17,10.19,10.19,0,0,0,6.55-2.16h1.53a12.15,12.15,0,0,1-2.48-3.74A6,6,0,0,1,35.69,28.33Zm-4.35,5.59a10,10,0,0,1-5.54-1.75,13.56,13.56,0,0,0,0-16.53,10,10,0,0,1,11.42,0,13.57,13.57,0,0,0,0,16.45A10.52,10.52,0,0,1,31.34,33.92Z"/></svg>