<svg id="Layer_1" data-name="Layer 1" xmlns="http://www.w3.org/2000/svg" viewBox="0 0 81.5 66.5"><title>speedometer</title><path d="M40.68.27A33.12,33.12,0,1,0,73.79,33.39,33.16,33.16,0,0,0,40.68.27Zm0,65.32a32.2,32.2,0,1,1,32.19-32.2A32.24,32.24,0,0,1,40.68,65.59Z"/><path d="M21.8,20.39l.1.07s0,0,0,0L23.86,18l.71-.88a1,1,0,0,0-.79-1.62A1,1,0,0,0,23,16c-.29.36-.58.71-.86,1.07l-1.76,2.19.91.73Z"/><path d="M40.68,1.77A31.62,31.62,0,1,0,72.3,33.39,31.62,31.62,0,0,0,40.68,1.77Zm-5.11,2,3-.33,2.15,6.26,2.14-6.26,3,.33.33,8.89-2.31-.32-.22-5.94L41.5,12.31H39.85L37.77,6.37l-.22,5.94-2.31.32Zm-20,14.64-.72-.57-.08-.07.12-.16,1.84-2.3,2.15-2.68c.14-.17.28-.34.41-.52a2.29,2.29,0,0,1,.93-.67,2.16,2.16,0,0,1,2.83,1.5A2.39,2.39,0,0,1,23,14.1l.15-.13A2.39,2.39,0,0,1,27,15.61a2.35,2.35,0,0,1-.08.95,4.68,4.68,0,0,1-1,1.51l-2.2,2.75-1.84,2.3c-.05.06-.09.12-.14.17s-.06,0-.07-.05L21,22.7l-2.68-2.15ZM40.68,53.15A19.77,19.77,0,1,1,60.44,33.39,19.77,19.77,0,0,1,40.68,53.15Zm18.82-30-1.13-1.94,3.91-5.14-5.87,2.69-1.64-1.52,5.34-7,1.65,1.53-3.08,4.05,4.93-2.26,1.45,1.8-3.3,4.32,4.63-2.13,1.14,1.95Z"/><path d="M21.73,14.74a1,1,0,0,0-.23-.91,1,1,0,0,0-1.11-.24,1.64,1.64,0,0,0-.62.58l-2.08,2.6-.16.2.43.34,1.11.89c.37-.45.74-.91,1.1-1.37l1.1-1.36A2.15,2.15,0,0,0,21.73,14.74Z"/><path d="M21.91,33.39H40.68V14.62A19.29,19.29,0,0,0,21.91,33.39Z"/><path d="M40.68,52.15A19.28,19.28,0,0,0,59.44,33.39H40.68Z"/></svg>