<svg id="Layer_1" data-name="Layer 1" xmlns="http://www.w3.org/2000/svg" viewBox="0 0 78.26 66.5"><title>speedometer-17</title><path d="M1.37,40.89H24.08c.7,0,.94.32.94.94v3.33a1.32,1.32,0,0,0,1.46,1.46H52.1a1.31,1.31,0,0,0,1.46-1.46V41.85c0-.68.28-1,.95-1H68.75a2.2,2.2,0,0,0,2.19-1.18l7-13.8a1.51,1.51,0,0,0,.27-.81,1.28,1.28,0,0,0-1.37-1.28H54.51c-.58,0-.95-.16-.95-.94V19.55a1.31,1.31,0,0,0-1.46-1.46H26.48A1.31,1.31,0,0,0,25,19.55v3.32c0,.71-.33.94-.94.94H9.41a2.17,2.17,0,0,0-2.12,1.25L.15,39a1.27,1.27,0,0,0-.15.6A1.25,1.25,0,0,0,1.37,40.89ZM7,35.33l3.41-6.66c.13-.26.35-.41.86-.41H28.5c.59,0,1-.23,1-1V23.48c0-.69.29-1,.94-1H48.17c.63,0,.94.29.94,1v3.83c0,.65.31.94,1,.94H70.47a.77.77,0,0,1,.87.76.61.61,0,0,1-.1.36l-3.39,6.68a.89.89,0,0,1-.86.38H50.09c-.7,0-1,.32-1,1v3.83c0,.64-.27.93-.95.93H30.41c-.59,0-.95-.2-.95-.94V37.4c0-.7-.32-1-1-1H7.77a.77.77,0,0,1-.85-.76A.82.82,0,0,1,7,35.33Z"/><path d="M56,20.38h.31l.45.7H57l-.47-.72c.27,0,.49-.13.49-.45s-.28-.42-.56-.42h-.69v1.59H56v-.7Zm0-.69h.43c.16,0,.37,0,.37.22s-.07.29-.38.29H56v-.51Z"/><path d="M56.28,21.69a1.4,1.4,0,1,0-1.42-1.4A1.39,1.39,0,0,0,56.28,21.69Zm0-2.58a1.18,1.18,0,1,1-1.19,1.17A1.17,1.17,0,0,1,56.28,19.11Z"/></svg>