<svg id="Layer_1" data-name="Layer 1" xmlns="http://www.w3.org/2000/svg" viewBox="0 0 81.5 66.5"><title>speedometer</title><path d="M73.86,63.69a1,1,0,0,0,.87.31c.66-.08.68-1.08.68-1.08s.16-2.29.16-4.61a9.47,9.47,0,0,0-2.27-5.44s-23.57-26-31.82-26-31.8,26-31.8,26A9.45,9.45,0,0,0,7.4,58.31c0,2.31.16,4.61.16,4.61s0,1,.68,1.08a1,1,0,0,0,.88-.31c2.64-2.29,23.66-20.33,32.36-20.33S71.22,61.4,73.86,63.69Z"/><path d="M8.24,40.11a1,1,0,0,0,.88-.29c2.64-2.29,23.66-20.35,32.36-20.35S71.22,37.53,73.86,39.82a1,1,0,0,0,.87.29c.66-.06.68-1.07.68-1.07s.16-2.3.16-4.61A9.44,9.44,0,0,0,73.3,29S49.73,3,41.48,3,9.68,29,9.68,29A9.42,9.42,0,0,0,7.4,34.43c0,2.31.16,4.61.16,4.61S7.58,40.05,8.24,40.11Z"/></svg>