<svg id="Layer_1" data-name="Layer 1" xmlns="http://www.w3.org/2000/svg" viewBox="0 0 78.26 66.5"><title>speedometer</title><path d="M39.33.35A33.08,33.08,0,1,0,72.41,33.43,33.12,33.12,0,0,0,39.33.35Zm0,65.91A32.84,32.84,0,1,1,72.18,33.43,32.87,32.87,0,0,1,39.33,66.26Z"/><path d="M39.22,1.72a31.5,31.5,0,1,0,31.51,31.5A31.54,31.54,0,0,0,39.22,1.72Zm9,8.09,2.39-3.92,1.28.78-2.32,3.82,3.32,2-.59,1-3.47-2.12a1.5,1.5,0,0,1-.65-.74A.87.87,0,0,1,48.26,9.81ZM38.2,4.08a.92.92,0,0,1,.46-.67,1.57,1.57,0,0,1,1-.17l5.1.61-.11,1-5.15-.62-.16,1.35,5.15.61-.12,1L39.21,6.5l-.16,1.34,5.15.62-.1,1L39,8.81a1.44,1.44,0,0,1-.9-.4.92.92,0,0,1-.32-.76Zm-11.87,2a1.44,1.44,0,0,1,.82-.58L32,3.87l.32.91L27.41,6.47l.44,1.27,4.91-1.68.31.92-4.9,1.68L28.61,10l4.91-1.69.3.91L29,10.84a1.47,1.47,0,0,1-1,0,.84.84,0,0,1-.61-.54L26.2,6.93A.89.89,0,0,1,26.33,6.12ZM16.17,14.36a1.54,1.54,0,0,1,.46-.9l3.56-3.68.7.67-3.61,3.72,2.64,2.57L22.62,14l-1-.95L20,14.7,19.29,14l2.58-2.64,2.36,2.29-3.58,3.69a1.55,1.55,0,0,1-.88.48.88.88,0,0,1-.79-.22l-2.57-2.49A.88.88,0,0,1,16.17,14.36ZM55.47,49l-.29.31a23.77,23.77,0,0,1-5.92,4.3,21.93,21.93,0,0,1-9.54,2.48h-.46c-.73,0-1.46,0-2.18-.1a22.47,22.47,0,0,1-2.82-.49,23.66,23.66,0,0,1-11-6.09,22,22,0,0,1-6.9-15.79,23,23,0,0,1,6.9-16,23.71,23.71,0,0,1,10.87-6.24,21.86,21.86,0,0,1,3.08-.55,20.9,20.9,0,0,1,2.09-.11h.47A23.23,23.23,0,0,1,62,33.38,22.74,22.74,0,0,1,55.47,49Zm3-33.16-2,1.61-.09.08-.09.07-.6-.75-.2-.26.05,0,2.13-1.71L58.17,11l.82,1-.3,2.73,2.73.29.82,1Z"/><path d="M44.92,12.71a21.63,21.63,0,0,0-2.68-.58,21.89,21.89,0,0,0-2.59-.21h-.46A21.19,21.19,0,0,0,22.65,46.37c.15.2.31.38.47.57a21.16,21.16,0,0,0,16.07,7.39l.46,0a24.25,24.25,0,0,0,2.59-.2,23.6,23.6,0,0,0,2.68-.57,21.23,21.23,0,0,0,10.71-7L56,46A21.18,21.18,0,0,0,44.92,12.71Zm10.7,33.42a20.91,20.91,0,0,1-16,8A20.93,20.93,0,0,1,23.36,45.7c-.15-.18-.28-.38-.42-.57l.14-.28h-.24L31,33.71l8.16-11.13.4.55,2.27,3.09L31.71,39.77c.32-.09.65-.16,1-.23L34,39.28l8.75-11.75.4.55,1.88,2.56-6.13,8.22h.34l.47,0c.37,0,.74,0,1.11,0L46,32l.4.55.89,1.22.35.48-3.71,5c.24,0,.48.08.71.12s.67.11,1,.18l3-4,.4.56L50,37.33,47.9,40.08l.66.22.88.32,1.47-2,.4.55,1,1.39-.78,1a5.21,5.21,0,0,1,.56.34q.41.26.75.51l.44-.59.4.55,1.75,2.4H55.2A2.93,2.93,0,0,1,55.62,46.13Z"/></svg>