<svg id="Layer_1" data-name="Layer 1" xmlns="http://www.w3.org/2000/svg" viewBox="0 0 78.26 66.5"><title>speedometer</title><path d="M5,47.33a30.45,30.45,0,0,0,1.54,5.55,16.31,16.31,0,0,0,1.54,3,11.12,11.12,0,0,0,4.77,3.86,21.59,21.59,0,0,0,2.44.89,34,34,0,0,0,7.08,1.24c2.29.2,4.59.36,6.9.45,3.32.12,6.64.16,9.24.22,2.78,0,4.83-.06,6.87-.1,2.88-.06,5.76-.18,8.64-.39a55.21,55.21,0,0,0,6.41-.76,22.34,22.34,0,0,0,5.07-1.48,11.24,11.24,0,0,0,6-5.76,25.81,25.81,0,0,0,1.3-3.5,54,54,0,0,0,1.39-7c.31-2.34.57-4.68.81-7s.38-4.68.43-7a103.57,103.57,0,0,0-.2-11.28A18.58,18.58,0,0,0,74.39,14a11.48,11.48,0,0,0-4-5.82A14.21,14.21,0,0,0,66.18,6,31.48,31.48,0,0,0,60,4.78q-3.84-.47-7.7-.65t-8-.29c-3.56-.08-7.12-.06-10.69,0-4,.08-8,.25-12,.61-2,.18-4,.39-6,.76a22.43,22.43,0,0,0-4.87,1.41,11.34,11.34,0,0,0-6,5.61,15.45,15.45,0,0,0-1.35,4.7,43.29,43.29,0,0,0-.36,5.21c0,2.23,0,4.46,0,6.7A119.64,119.64,0,0,0,4,40.8C4.23,43,4.58,45.17,5,47.33ZM6.72,25.64c0-1.92.12-3.83.24-5.74a20.69,20.69,0,0,1,.79-5A9.58,9.58,0,0,1,11.29,9.8a12.21,12.21,0,0,1,3.32-1.63,21.11,21.11,0,0,1,4-.88c1.88-.24,3.78-.46,5.68-.64,1.33-.13,2.66-.2,4-.26,2.21-.1,4.42-.23,6.63-.25,3.26,0,6.51,0,9.77,0,2.46,0,4.92.18,7.39.32,2.64.15,5.27.41,7.88.81a20.53,20.53,0,0,1,5,1.26,9.51,9.51,0,0,1,4.67,3.79A11.14,11.14,0,0,1,71,15.7a21.82,21.82,0,0,1,.53,3.61,104.51,104.51,0,0,1,.27,10.91q-.08,3.24-.41,6.46c-.17,1.76-.33,3.51-.54,5.26a44.86,44.86,0,0,1-1.71,8.43A17.7,17.7,0,0,1,68,53.11a9.84,9.84,0,0,1-5.15,4.69A18.87,18.87,0,0,1,58.48,59a73.88,73.88,0,0,1-7.72.75c-3.54.2-7.1.29-10.66.29h-.84v.05C36.19,60,33.12,60,30,59.83c-2.23-.08-4.47-.25-6.69-.44a35.16,35.16,0,0,1-5.5-.86,15.14,15.14,0,0,1-2.58-.9,9.85,9.85,0,0,1-4.91-4.84,23.24,23.24,0,0,1-1.57-4.54,52.91,52.91,0,0,1-1.13-6.48c-.25-2.44-.5-4.89-.7-7.33A86.2,86.2,0,0,1,6.72,25.64Z"/><path d="M17.78,12.53c.09,1.29.16,2.59.25,3.88.13,2.12.27,4.23.4,6.35.12,1.74.22,3.47.34,5.2.13,2,.28,4,.41,6.06.11,1.61.21,3.22.33,4.84l.48,6.6c.14,1.79.27,3.59.41,5.39.16,2.08.34,4.15.51,6.23a4.51,4.51,0,0,0,.07.53,60.59,60.59,0,0,0,7.21.5c0-.15.09-.31.14-.48.62-2.27,1.23-4.54,1.86-6.81a19.58,19.58,0,0,1,1.41-3.58,4.5,4.5,0,0,1,3.5-2.5,27.92,27.92,0,0,1,4.18-.32,27,27,0,0,1,4.21.33,4.42,4.42,0,0,1,3.37,2.41c.16.29.31.59.44.89a25.83,25.83,0,0,1,1.23,3.49c.57,2,1.1,4.07,1.65,6.11l.15.46a48.22,48.22,0,0,0,7.23-.54c1.35-16.11,2.36-32.26,3.37-48.44a40.07,40.07,0,0,0-5-.38c0,.14-.07.24-.09.35q-1,4.58-2,9.13c-1,4.46-2.09,8.88-3.27,13.29a24.79,24.79,0,0,1-1.5,4.18,7.52,7.52,0,0,1-6.13,4.39,24.3,24.3,0,0,1-3.19.21A24.57,24.57,0,0,1,35.11,40a7.5,7.5,0,0,1-4.72-2.78A10.56,10.56,0,0,1,29,34.67a42.35,42.35,0,0,1-1.5-4.8C25.83,23.44,24.39,17,23,10.46l-.4-1.71a43.75,43.75,0,0,0-5,.37c0,.13,0,.22,0,.31C17.64,10.46,17.72,11.5,17.78,12.53Z"/></svg>