<svg id="Layer_1" data-name="Layer 1" xmlns="http://www.w3.org/2000/svg" viewBox="0 0 78.26 66.5"><title>speedometer-17</title><path d="M2,26.91a10.78,10.78,0,0,0-1.5,9.55A14.79,14.79,0,0,0,5.3,43.21,32.41,32.41,0,0,0,15,48.82a63.54,63.54,0,0,0,21.19,4,74.85,74.85,0,0,0,10.59-.39,66.28,66.28,0,0,0,10.76-2,43.13,43.13,0,0,0,12.92-5.72,19.87,19.87,0,0,0,6.13-6.18A10.75,10.75,0,0,0,78,30.49a13.13,13.13,0,0,0-3.38-6.13,27.88,27.88,0,0,0-8.72-6.07,51.28,51.28,0,0,0-12.14-3.87,65.91,65.91,0,0,0-8.86-1.17c-.68,0-1.35-.11-2-.17H36.37a3,3,0,0,1-.32.07c-1.12.08-2.22.12-3.33.23a67.45,67.45,0,0,0-10.39,1.73A46.83,46.83,0,0,0,9,20.49,21.49,21.49,0,0,0,2,26.91ZM47.4,40.63a13.45,13.45,0,0,1-4.51,8,5.41,5.41,0,0,1-3.19,1.2c-.82.06-1.66.08-2.15.11a67.07,67.07,0,0,1-8.33-.7,59.56,59.56,0,0,1-8.15-1.59c-.92-.26-1.83-.56-2.7-.88s-.76-.75-.15-1.23A48.09,48.09,0,0,1,37.7,36.4a19.07,19.07,0,0,1,5.68-.63,4.09,4.09,0,0,1,3.56,1.88A4.15,4.15,0,0,1,47.4,40.63Zm18.18-15c.31-.61.62-1.24.94-1.85.42-.78.84-1,1.62-.57a11.48,11.48,0,0,1,6.67,8.88,5.53,5.53,0,0,1,0,.91,8.71,8.71,0,0,1-2,5.55,19.7,19.7,0,0,1-6.32,5.15,41.55,41.55,0,0,1-13.2,4.59c-.2,0-.58,0-.6-.12a.88.88,0,0,1,.08-.73c.59-.85,1.23-1.68,1.87-2.52a73,73,0,0,0,6-9.51C62.34,32.19,63.93,28.89,65.58,25.62ZM34.46,18.14a7.22,7.22,0,0,1,5.25-2.21,55.41,55.41,0,0,1,15.22,1.71c1.34.33,2.69.76,4,1.18a5.35,5.35,0,0,1,1.2.59.69.69,0,0,1,.11,1.15,3.76,3.76,0,0,1-.87.71,79.72,79.72,0,0,1-16.61,7.88A25.71,25.71,0,0,1,36,30.56a6.42,6.42,0,0,1-3-.48c-1.51-.68-2-1.94-1.94-3.83A13,13,0,0,1,34.46,18.14Zm-11.29-.23a10.5,10.5,0,0,1,2.45-.22c.7,0,.86.33.44.89-1.13,1.51-2.32,3-3.43,4.48A69.66,69.66,0,0,0,12.8,40.69,7.44,7.44,0,0,1,12,42.36a1.3,1.3,0,0,1-1.78.59,7.31,7.31,0,0,1-2.52-1.69,14.37,14.37,0,0,1-3.88-5.52c-.29-.86-.4-1.79-.61-2.69l.11,0a9.07,9.07,0,0,1,2.4-5.81,21.24,21.24,0,0,1,5.83-4.67A48.84,48.84,0,0,1,23.17,17.91Z"/></svg>