<svg id="Layer_1" data-name="Layer 1" xmlns="http://www.w3.org/2000/svg" viewBox="0 0 78.26 66.5"><title>speedometer-17</title><path d="M15.62,16.65a2.41,2.41,0,0,0,1-.27,1.49,1.49,0,0,0,.3-.16h-.79a1.24,1.24,0,0,0-1,.39s.09,0,.23,0Z"/><path d="M8.7,20.8a4.73,4.73,0,0,0,.4.7,1.44,1.44,0,0,0,1.32.62c.28-.05.29-.13.29-.13a1.29,1.29,0,0,0,.84.31,6.53,6.53,0,0,1-.32-.85,1.41,1.41,0,0,1,0-.52,2.2,2.2,0,0,1,.46-.87.82.82,0,0,1,1-.13,1.67,1.67,0,0,1,.35,1.81c0,.07-.33.74-.67.83a.17.17,0,0,1-.09,0,1.92,1.92,0,0,1-.65-.24,1.07,1.07,0,0,0,.05.31c0,.13.09.29.13.41l-.13.23c-.08.09-.16.41,0,.55a3.51,3.51,0,0,0,1.47.54.72.72,0,0,0,.68-.31,8.21,8.21,0,0,1,1-1.27,5.69,5.69,0,0,1,2.54-1.23c.1,0,1.72-.46,4.48,1.74-.79.05-1.73.25-2.44.37a5.76,5.76,0,0,0-3.73,3.06,1.86,1.86,0,0,0,1,2.74,3.72,3.72,0,0,0,2.86-2.19,1,1,0,0,1,1.24-.61c.59.19,5.78,2,7,2.3,0,0,3.48.9,4.79-.69,2.09.69,4,1,9.19.36a10.16,10.16,0,0,1,1.6-.09A3.77,3.77,0,0,1,46.05,30c1.35,2.15,3.07,6.44,9,5.92l2.7-.24a7.74,7.74,0,0,1,4.34.54A6.29,6.29,0,0,1,64,37.59c1.37,1.31,2.64,2.72,4.32,2a4.44,4.44,0,0,0,1.27-1.34,1.93,1.93,0,0,0-.82-1.35c1.53.35,5,.59,6.3-1.73a1.46,1.46,0,0,0,.25-1.31C75,33,74,33.27,74,33.27c-.48.1-1,.64-1.82.89A5,5,0,0,1,69,34.07c-2.68-1.15-11.28-6.06-15.66-8.2,0,0-5.08-2.35-12.46-5.26,0,0-14.49-6.16-24.16-5.66,0,0-5.16.14-6.78,2.4a.67.67,0,0,0-.12.66.15.15,0,0,1,0,.15A9.28,9.28,0,0,0,8.5,19.64a.75.75,0,0,0,0,.95A1.4,1.4,0,0,1,8.7,20.8ZM9.18,20a2.23,2.23,0,0,1,1.62-1.36l.59-.08a2.78,2.78,0,0,0,1.83-1.5,9,9,0,0,0-1.25.05c-.82.15-1.1,1.11-1.1,1.11-.7.16-.68-.44-.56-.62s.52-.89,3.2-1.51a14.19,14.19,0,0,1,4.15-.27l-.12.22a2.6,2.6,0,0,1-2.88,1.08s0,.73,1.79,1c0,0,1.61.29,4.34,2.47,0,0-1.31-2.58-3.52-3.24,0,0-.27-.06-.14-.24a5.41,5.41,0,0,1,3.12-1.31s6-.57,9.26,4A17.83,17.83,0,0,0,27.77,17s3.45,1,8.77,2.82c0,0,3.63,1.27,6,2.19a164.25,164.25,0,0,1,16,7c.89.48,9.93,5.18,9.93,5.18a5.84,5.84,0,0,0,4.24.44c.56-.21,1.58-1,2-.55a.76.76,0,0,1,.15.84,3,3,0,0,1-1.56,1.4,8,8,0,0,1-3.53.3,6.41,6.41,0,0,1-3.6-1.95c-.54-.55-1.19-1.18-1.79-1.8a3.39,3.39,0,0,0-2-1.07,43.26,43.26,0,0,1-4.92-.57,5.19,5.19,0,0,1-2.65-2.34,4.33,4.33,0,0,0-1.64-1.47,4.07,4.07,0,0,1,.87,1c.46.82.7,1.41.95,1.84a3.6,3.6,0,0,0,1,1.16,2.42,2.42,0,0,0,1.42.59c.55.09,2.4.08,4,.06a3.72,3.72,0,0,1,2.76.9c.48.4,1.29,1.54,1.79,2a7.37,7.37,0,0,0,2.21,1.78c.41.21,1.08.71,1,1.21-.53.52-1.19.66-2.76.24a2.28,2.28,0,0,0,2.35.57,1.86,1.86,0,0,1-1.29.48c-1.47-.08-2.92-1.9-3.73-2.56a14.81,14.81,0,0,0-1.74-1.36c-1.58-1.1-5.16-.79-5.16-.79l-2.62.14c-5.1.38-7.24-4.13-7.81-5.07a6.87,6.87,0,0,0-.54-.8,9.52,9.52,0,0,0-3.07-2.74s1.39,1.19,1.31,2a4.39,4.39,0,0,0-2.14,0c-6.71.95-9-.72-9-.72a4,4,0,0,0-.63-2.72,14.77,14.77,0,0,0,7,.64s-5.11,0-8.69-2.81c0,0,2.23,2.78,1.7,4.6,0,0-.36,1.93-4.25,1.16-.42-.09-.9-.22-6.72-1.83-1.37-.41-1.84.24-2.08.63a2.27,2.27,0,0,1-1,1.45,1.36,1.36,0,0,1-1.09-2c-1.13,1.61.05,2.32.43,2.37a4.82,4.82,0,0,1-.61.26,1.69,1.69,0,0,1-.66-2.31A4.94,4.94,0,0,1,20.69,24,11.06,11.06,0,0,1,23,23.88c1.55.21,2.53,1.09,4.85,1.32-4.93-1.46-4.94-4.3-5-4.36h0a3.77,3.77,0,0,0,.11,2.4l-1.55-1A8.86,8.86,0,0,0,18.27,21c-.58-.08-.86-.79-.86-.79a.39.39,0,0,0-.06-.11c-.81-1.39-1.63-1.41-1.63-1.41a2.87,2.87,0,0,1,.47,1.49c.24,1.73-1.72,2.26-1.72,2.26C13.26,24,13.33,24,13.06,24a2.24,2.24,0,0,1-.85-.26c-.1-.14,0-.29,0-.29a4.08,4.08,0,0,0,.41-.35c1.27-1.3,1.42-1.93,1.26-2.77-.32-1.69-1.53-1.48-1.53-1.48a1,1,0,0,0-.82.53c-.2.31-.63,1.27-.63,1.27-.26.56-.53.69-.67.71h-.21A1.16,1.16,0,0,1,9.34,21s0,0-.05-.05A.87.87,0,0,1,9.18,20Zm2-1.8.06-.2s.17-.44.54-.47c0,0,.21,0,.54,0a1,1,0,0,1-.8.63A2.19,2.19,0,0,1,11.14,18.23Z"/><path d="M9.94,48.29a2.6,2.6,0,0,0,.68-2v-3H8.33v2.81a2.31,2.31,0,0,1-.59,1.76A3.73,3.73,0,0,1,5,48.59H.79v.83H5.4C7.58,49.42,9.13,49.12,9.94,48.29Z"/><path d="M61,48.11l1.13,1.31H64.7l-5.34-6.14H57.1l-5.35,6.14h1.33l1.13-1.31Zm-3.4-3.93,2.71,3.14H54.89Z"/><path d="M22,49.42h2.57l-5.34-6.14H17l-5.35,6.14H13l1.12-1.31h6.79Zm-7.24-2.1,2.71-3.14,2.72,3.14Z"/><path d="M76.81,46.79a1.67,1.67,0,0,0,.86-1.52,1.63,1.63,0,0,0-1-1.64,7,7,0,0,0-2.8-.35h-7.1v6.14H69V47.29h3l3.44,2.13h2.79l-3.6-2.18A4.89,4.89,0,0,0,76.81,46.79ZM69,46.52V44.05h4.51a2.51,2.51,0,0,1,1.5.27,1,1,0,0,1,.34.92v.12a1,1,0,0,1-.39.92,2.59,2.59,0,0,1-1.42.24Z"/><path d="M39.4,43.28v3.06a3,3,0,0,0,.48,1.93c.66.86,1.85,1.35,5.16,1.35h0c3.33,0,4.53-.49,5.17-1.35a3,3,0,0,0,.49-1.94v-3H48.45v3a2.72,2.72,0,0,1-.39,1.67c-.5.7-1.28,1-2.89,1H45c-1.54,0-2.39-.26-2.89-1a2.66,2.66,0,0,1-.39-1.67v-3Z"/><path d="M30.91,44.1h5.72v-.82H30.19a6.47,6.47,0,0,0-3.32.64,2.69,2.69,0,0,0-1.4,2.41A2.63,2.63,0,0,0,27.27,49a8,8,0,0,0,3,.45h6.63V46.6H34.58v2H30.93A3.78,3.78,0,0,1,28.55,48a2.31,2.31,0,0,1-.05-3.34A3.59,3.59,0,0,1,30.91,44.1Z"/></svg>