<svg id="Layer_1" data-name="Layer 1" xmlns="http://www.w3.org/2000/svg" viewBox="0 0 78.26 66.5"><title>speedometer-17</title><path d="M44.84,43.36a8.74,8.74,0,0,0,4.53,1,9.29,9.29,0,0,0,5.11-1.17,9.12,9.12,0,0,0,3-3.89L52,38.66a3.9,3.9,0,0,1-1,1.14,2.64,2.64,0,0,1-1.55.51,2.45,2.45,0,0,1-2.11-1.17,5.18,5.18,0,0,1-.72-2.48H57.82v-.78a15.14,15.14,0,0,0-.94-5.78,7.4,7.4,0,0,0-2.75-3.39,8.93,8.93,0,0,0-4.92-1.17,7.43,7.43,0,0,0-6,2.61A10.35,10.35,0,0,0,41,35a11.47,11.47,0,0,0,1.09,5.16A7.46,7.46,0,0,0,44.84,43.36Zm2.48-12.43a2.41,2.41,0,0,1,2.13-1.31,2.27,2.27,0,0,1,1.85.87,5.34,5.34,0,0,1,.87,2.87H46.69A5.61,5.61,0,0,1,47.32,30.93Z"/><path d="M72.16,25.54a4.8,4.8,0,0,0-2.7.8,7.79,7.79,0,0,0-2,2.27V26H62.28v26.2H67.9V42.21a5.87,5.87,0,0,0,1.89,1.62,5.17,5.17,0,0,0,2.35.53A5.25,5.25,0,0,0,76.53,42c1.16-1.58,1.73-3.87,1.73-6.85a13.56,13.56,0,0,0-1.59-6.85A5,5,0,0,0,72.16,25.54ZM72,38.22a1.92,1.92,0,0,1-1.63,1,2.16,2.16,0,0,1-1.83-1A5.67,5.67,0,0,1,67.86,35a6.14,6.14,0,0,1,.7-3.36,2.13,2.13,0,0,1,1.79-1,2,2,0,0,1,1.66,1,5.84,5.84,0,0,1,.69,3.21A6.37,6.37,0,0,1,72,38.22Z"/><path d="M13.2,42.85a7.27,7.27,0,0,0,2.45-3.76,26.35,26.35,0,0,0,.61-6.48V17.75h-6.2V34.43a7.64,7.64,0,0,1-.49,3.23,1.61,1.61,0,0,1-1.53,1,1.43,1.43,0,0,1-1-.32A2.75,2.75,0,0,1,6.29,37a10.83,10.83,0,0,1-.23-2.45L0,34.34A20.83,20.83,0,0,0,1.22,40.4a6.62,6.62,0,0,0,2.57,3,9.07,9.07,0,0,0,4.71,1A7,7,0,0,0,13.2,42.85Z"/><path d="M24.3,43.36a8.71,8.71,0,0,0,4.54,1,9.27,9.27,0,0,0,5.1-1.17,9.21,9.21,0,0,0,3-3.89l-5.49-.64a3.89,3.89,0,0,1-1,1.14,2.74,2.74,0,0,1-1.56.51,2.44,2.44,0,0,1-2.11-1.17,5.18,5.18,0,0,1-.72-2.48H37.28v-.78a15,15,0,0,0-.94-5.78,7.4,7.4,0,0,0-2.75-3.39,9,9,0,0,0-4.92-1.17,7.45,7.45,0,0,0-6,2.61A10.41,10.41,0,0,0,20.46,35a11.6,11.6,0,0,0,1.09,5.16A7.54,7.54,0,0,0,24.3,43.36Zm2.48-12.43a2.41,2.41,0,0,1,2.12-1.31,2.29,2.29,0,0,1,1.86.87,5.27,5.27,0,0,1,.86,2.87H26.14A5.6,5.6,0,0,1,26.78,30.93Z"/></svg>