<svg id="Layer_1" data-name="Layer 1" xmlns="http://www.w3.org/2000/svg" viewBox="0 0 78.26 66.5"><title>speedometer</title><path d="M38.85,52.71c21.2,0,38.5-8.85,38.5-19.71s-17.3-19.69-38.5-19.69S.36,22.15.36,33,17.65,52.71,38.85,52.71Zm0-34.74c19.55,0,35.49,6.76,35.49,15S58.4,48,38.85,48,3.37,41.29,3.37,33,19.31,18,38.85,18Z"/><polygon points="52.46 42.36 56.22 29.23 59.98 42.36 65.16 42.36 59.81 23.56 57.65 23.56 54.64 23.56 51.86 23.56 51.85 24.42 52.62 24.42 47.28 42.36 52.46 42.36"/><path d="M15.56,42.36h5.18V34.17l5.83,7.73h6l-6.94-9.2,6-8.71h-6l-4.88,7.08V24H15.56v0h-.93v.77a2.59,2.59,0,0,1,.93.15Z"/><path d="M36.93,42.36H42.1V24H36.93v0H36v.77a2.59,2.59,0,0,1,.93.15Z"/></svg>