<svg id="Layer_1" data-name="Layer 1" xmlns="http://www.w3.org/2000/svg" viewBox="0 0 78.26 66.5"><title>speedometer</title><path d="M77.35,23.39C77.35,14.89,60.11,8,38.85,8S.36,14.89.36,23.39s17.24,15.4,38.49,15.4S77.35,31.89,77.35,23.39ZM38.85,37.51c-19.12,0-34.64-6.32-34.64-14.12,0-7.23,13.39-13.21,30.63-14a.14.14,0,0,1,.13.12L31.84,26.72a.13.13,0,0,0,.1.15.15.15,0,0,0,.09,0,20.7,20.7,0,0,0,2-1.77c3.2-3.2,5-7,4.81-9.8V15a3.85,3.85,0,0,0-2.24-3.5s-.06-.08-.06-.13l.37-2A.13.13,0,0,1,37,9.3c.6,0,1.21,0,1.81,0C58,9.28,73.5,15.59,73.5,23.39S58,37.51,38.85,37.51Z"/><path d="M47.19,11.7a.12.12,0,0,0-.14.11c1.79,3.73.44,8.5-3.12,12.23,0,.15,0,.21.07.22,1.16.1,2.28.23,3.34.38a.1.1,0,0,1,.09.1l.19,1c0,.11-.08.15-.14.14-1.1-.29-2-.23-2.19.2s.47,1,1.43,1.52,1.76,1.38,1.76,2.21c0,2.12-4.3,3.84-9.63,3.84a53.07,53.07,0,0,1-11.76-1.26.11.11,0,0,1-.1-.15l.23-1.35a.13.13,0,0,1,.15-.09,20.32,20.32,0,0,0,6.35.95,18.54,18.54,0,0,0,7.19-1.29c1.52-.67,2.44-1.58,2.44-2.57a2.59,2.59,0,0,0-1.37-2,.14.14,0,0,0-.15,0,19.65,19.65,0,0,1-2.13,1.41,18,18,0,0,1-7.92,2.45h-.1a2,2,0,0,1-1.94-1.94,2.2,2.2,0,0,1,0-.36l2.88-15.86c0-.1-.06-.16-.12-.16C19.27,12.68,9.35,17.56,9.35,23.39c0,6.74,13.21,12.2,29.5,12.2s29.51-5.46,29.51-12.2C68.36,17.85,59.43,13.18,47.19,11.7Z"/><polygon points="13.77 42.66 9.25 42.66 9.25 58.81 21.1 58.81 21.1 55.85 13.77 55.85 13.77 42.66"/><path d="M27.35,42.66,21.27,58.81H25L26.39,55H32.3l1.36,3.81h4.71L32.22,42.66Zm-.11,9.61,2.11-5.89,2.12,5.89Z"/><path d="M52.52,44.75c-2.22-1.9-5.12-2.1-7-2.1H38.87V58.8H46A9.59,9.59,0,0,0,52.24,57a8.09,8.09,0,0,0,.28-12.22Zm-3.26,9.49a4.55,4.55,0,0,1-3.86,1.6h-2V45.62h2A5.09,5.09,0,0,1,49,46.8a5.28,5.28,0,0,1,1.32,3.77A6.06,6.06,0,0,1,49.26,54.24Z"/><path d="M59.54,42.65,53.46,58.8h3.77L58.58,55H64.5l1.35,3.81h4.7L64.41,42.65Zm-.11,9.61,2.11-5.88,2.11,5.88Z"/></svg>