<svg id="Layer_1" data-name="Layer 1" xmlns="http://www.w3.org/2000/svg" viewBox="0 0 78.26 66.5"><title>speedometer</title><path d="M23.58,33.09c-2.56,4-2.8,6-2.86,7.29a6.31,6.31,0,0,0,2,5.46c3.5,3.11,8.41,2.61,12.75,2.61H71.3a2.88,2.88,0,0,0,2.81-1.55,24.58,24.58,0,0,0,4.15-13.33c0-9.08-5.92-20.5-20.87-25.66l-1.68,2.41c11.86,5.61,16.77,13,16.77,23.23A14.72,14.72,0,0,1,70,42H35.16c-2.08,0-2.38-2.35-1.63-3.68a141,141,0,0,1,10-15.26c3.54-4.68,7-9.06,10.64-13.65,1-1.28.33-2.5-1.63-2.91A63.74,63.74,0,0,0,39,5.09C10.45,5.09,0,21.44,0,33.57,0,46.72,10.54,62,39.12,62,55,62,65.37,56.9,71.39,50.35H65.32c-5.27,4.84-14.28,8.27-26.2,8.27C14.9,58.62,6,45.07,6,33.39,6.15,23,15.74,8.59,39.72,8.12c.92,0,1.62.8,1,1.57C36.6,14.73,24.91,31,23.58,33.09Z"/></svg>