<svg id="Layer_1" data-name="Layer 1" xmlns="http://www.w3.org/2000/svg" viewBox="0 0 78.26 66.5"><title>speedometer</title><path d="M68.52,14.7C61.18,6.82,49.16,5.11,39.07,5.11S16.5,6.82,9.29,15.16c-.13.14-.23.3-.35.45C5.4,19.83,3.21,25.88,3.21,34c0,25,20.4,29,35.86,29s36-4,36-29c0-8.11-2.17-14.16-5.74-18.38C69,15.31,68.78,15,68.52,14.7ZM15.71,19.61c4.81-7.42,14-9.25,23.36-9.25s18.35,1.72,23.26,9c.1.17.21.33.3.5C54.3,24.76,44.8,24.94,39.07,37.19,32.84,25.3,23.45,25.21,15.2,20.5,15.36,20.2,15.53,19.91,15.71,19.61ZM39.07,57.73C25.21,57.85,12.15,53.86,12.15,34a24.77,24.77,0,0,1,.23-4.23c.08-.27.14-.55.22-.83l14,4.72c5.49,2.29,9.16,5.48,12.48,12.67C42.4,39.13,46,35.48,51.57,33.19l14.11-5a3.15,3.15,0,0,1,.09.36A39.86,39.86,0,0,1,66.11,34C66.11,53.86,52.94,57.85,39.07,57.73Z"/></svg>