<svg id="Layer_1" data-name="Layer 1" xmlns="http://www.w3.org/2000/svg" viewBox="0 0 78.26 66.5"><title>speedometer</title><path d="M38.86,11.18c0-.44-.14-.45-.17,0L37.3,31.89l1.38.81Z"/><path d="M32.37,36.74l5.84-3.24-1.33-.74L32.2,36.6C31.94,36.82,32.06,36.91,32.37,36.74Z"/><path d="M39,.07A33.35,33.35,0,0,0,5.43,33.24a33.54,33.54,0,0,0,67.08,0A33.36,33.36,0,0,0,39,.07Zm0,65.09c-12.6,0-22.49-6.55-27.2-15.55l.72-.27a44.16,44.16,0,0,0,5,6.12C20.1,58.37,28.47,64,39,64A31,31,0,0,0,65.39,49.37c.43-.12.56-.31.42-.67A32.25,32.25,0,0,0,70,33.24a28.14,28.14,0,0,0-1.3-8.71A35.9,35.9,0,0,0,66.94,20a.8.8,0,0,1-.12-.43,1.13,1.13,0,0,1,.3.37,43.16,43.16,0,0,1,2.09,4.48,22.3,22.3,0,0,1,1.92,8.78A32.08,32.08,0,0,1,39,65.16Zm-26.9-16.3L35.56,32l-2-1.15L12.62,48.23a32.15,32.15,0,0,1-4-14.94A29.79,29.79,0,0,1,38.36,3.38L34.08,30l2,1.16,2.69-27.8c0-.35.29-.35.29,0l.15,29.32L44,29.9,39.42,3.37C55.75,3.81,69.27,17,69.27,33.24a31.78,31.78,0,0,1-4,15L44.37,30.83l-2,1.15L64.83,48.29c.54.38.38.56-.2.24L39.39,34v5.45l25.3,9.67A30,30,0,0,1,38.87,63.27,29.75,29.75,0,0,1,13.18,49.08l25.35-9.67V34L12.28,49.11C11.66,49.46,11.49,49.26,12.06,48.86Zm-.61.29a36.17,36.17,0,0,1-2.76-8.1.89.89,0,0,1,0-.4,1.29,1.29,0,0,1,.18.39,39.09,39.09,0,0,0,3.16,7.65ZM71.08,27.62a1.5,1.5,0,0,1-.18-.38c-2.45-7.56-4.54-10.53-8.57-14.95A32.34,32.34,0,0,0,39.16,2,31.91,31.91,0,0,0,7.27,33.86a34.52,34.52,0,0,0,2.06,12c1.08,2.63,2.94,6.18,3,6.34a.86.86,0,0,1,.1.42,1.34,1.34,0,0,1-.3-.35,56.42,56.42,0,0,1-3.4-6.44A32.85,32.85,0,0,1,6.18,33.74,32.85,32.85,0,0,1,39,.88,32.2,32.2,0,0,1,71.08,27.22.9.9,0,0,1,71.08,27.62Z"/><path d="M58.42,44.29,41.14,32.7l-1.43.82,18.63,10.9C58.67,44.61,58.74,44.49,58.42,44.29Z"/></svg>