<svg id="Layer_1" data-name="Layer 1" xmlns="http://www.w3.org/2000/svg" viewBox="0 0 78.26 66.5"><title>speedometer</title><path d="M53.62,30.4c-1.24.06-3.18-.31-3.13,1.59,1.68.08,3.42.06,5,0C55.85,30.65,54.52,30.37,53.62,30.4Z"/><path d="M76.2,24.87c-1.11-.17-2.25-.33-3.4-.49C68.73,10.33,55.21,0,39.15,0S9.79,10.16,5.59,24.05l-2.65.54C.47,25,.3,26.77.3,26.88c-.55,2.24-.22,9.66,0,12.18a2.36,2.36,0,0,0,2.47,2.51c.81.18,1.73.34,2.71.49,4,14.08,17.59,24.44,33.67,24.44S68.66,56.22,72.77,42.21c2.11-.27,3.28-.46,3.28-.46,2-.17,2-2.53,2-2.55.37-3.45.09-11.81.07-11.81C78.1,24.91,76.2,24.87,76.2,24.87ZM39.15,8.11A26.47,26.47,0,0,1,63.44,23.38c-19.18-1.61-39.44-.91-48.37-.46A26.51,26.51,0,0,1,39.15,8.11ZM58.2,33.87c.07,1.2,0,2.35,0,3.56a22.26,22.26,0,0,1-2.45,0c-.11-1.19.08-2.23-.12-3.45a46,46,0,0,0-5.12,0,23.69,23.69,0,0,0-.05,2.91c0,.4-.15.63-.58.6a4.16,4.16,0,0,0-1.27,0,.59.59,0,0,1-.75-.59A45.22,45.22,0,0,1,48,30.11a1.76,1.76,0,0,1,.9-1.22,3.63,3.63,0,0,1,1.5-.35c1.29,0,2.74,0,4,0s3.27-.11,3.7,1.34S58.12,32.52,58.2,33.87ZM39,31.24c2.44,1,4.88,1.59,7.1,2.84.49.27.49,1.06.52,1.56a1.94,1.94,0,0,1-.78,1.51,2,2,0,0,1-1.28.31H35.8a10.61,10.61,0,0,1,0-1.88c2.42,0,4.63,0,7.11,0,.48,0,.45-.62,0-.76-2-.63-3.64-1.35-5.55-2a2,2,0,0,1-1.4-1.46,1.82,1.82,0,0,1-.06-1.26c.77-2.25,3.35-1.47,5.23-1.55s3.73,0,5.5,0a10.16,10.16,0,0,1,0,1.91c-2.5,0-4.81,0-7.36,0C38.73,30.44,38.55,31,39,31.24ZM23.68,35.59c2.43,0,4.65,0,7.12,0,.48,0,.44-.62,0-.76-1.95-.63-3.63-1.36-5.53-2a2.07,2.07,0,0,1-1.42-1.46,1.94,1.94,0,0,1-.06-1.26c.77-2.25,3.36-1.47,5.23-1.55s3.73,0,5.51,0a9.28,9.28,0,0,1,0,1.9c-2.45,0-4.86,0-7.3,0a.86.86,0,0,0-.52.16c-.29.19,0,.6.27.67,1.74.45,3.32,1.43,5.06,1.8s3.7,2.38,1.68,4.15c-.19.17-.19,0-.41.15a.84.84,0,0,1-.55.07c-3,0-6,0-9,0A16.56,16.56,0,0,1,23.68,35.59ZM22.5,37.43c-.94.08-1.59,0-2.57,0-.06-3,0-5.95,0-8.91a22.21,22.21,0,0,1,2.58,0C22.52,31.52,22.52,34.48,22.5,37.43Zm-9.18-1.28c-.74-1.57-1.55-2.95-2.28-4.55-.17-.36-.78-.42-.8,0-.07,1.83,0,3.49,0,5.3,0,.37-.07.65-.54.6a2.75,2.75,0,0,0-1,0c-.51.08-.69-.18-.67-.59,0-2.13,0-4.18,0-6.27a1.78,1.78,0,0,1,.61-1.54,3.1,3.1,0,0,1,2.86-.33,2.46,2.46,0,0,1,1.34,1.35c.75,1.6,1.54,2.91,2.36,4.63a.53.53,0,0,0,1-.31c-.13-2.06,0-3.83,0-5.84.81,0,1.43,0,2.23,0,0,2.34,0,4.7,0,7a1.64,1.64,0,0,1-.6,1.3C16.45,37.86,14.05,37.71,13.32,36.15ZM39.15,58.39A26.45,26.45,0,0,1,14.83,43.05c11.45.87,24.65.92,24.65.92,9.29.15,17.59-.28,23.92-.8A26.45,26.45,0,0,1,39.15,58.39ZM69.7,36.66c-1.11,1.15-3.64,1.21-4.53-.25s-1.65-3.24-2.53-4.76c-.11-.19-.26-.47-.47-.4a.62.62,0,0,0-.36.62c0,1.85,0,3.72,0,5.55-.78.09-1.36,0-2.19.06,0-1.76,0-3.59,0-5.35,0-.92-.27-2,.31-2.72a2.88,2.88,0,0,1,3-.72,2.51,2.51,0,0,1,1.48,1.38c.79,1.63,1.67,3.17,2.51,4.81a.45.45,0,0,0,.84-.23c0-2.09,0-4,0-6.08.8,0,1.47,0,2.25,0,0,2.25,0,4.53,0,6.76A1.88,1.88,0,0,1,69.7,36.66Z"/></svg>