<svg id="Layer_1" data-name="Layer 1" xmlns="http://www.w3.org/2000/svg" viewBox="0 0 78.26 66.5"><title>speedometer-17</title><path d="M10.76,16a6.22,6.22,0,0,1,1.1-.17H12a3.3,3.3,0,0,1,2.76,1.8l-.56.43-.76.61a4.63,4.63,0,0,0,1.59.43,14,14,0,0,0,2.09.17,4.7,4.7,0,0,0,2.14-.37s.91,1.22,2,2.6a40.88,40.88,0,0,0,3.24,4c.29.15-1.92.28-4.36.45l-5.63.1a3.13,3.13,0,0,0-2.74,2,9.45,9.45,0,0,0-.55,3.64l.78-.25.42.74a3,3,0,0,0,1.86,1.72c.59-1.46,2.48-1.61,3.14-1.61h.22l0,1.63c3.69,0,4-2.69,4-2.69l7.2-.11,2,2.37,2.59,3.15C29.62,40.51,27,45.31,24.2,50.45a2.27,2.27,0,0,1-1.34,4h-.25c-1.24,0-2.58-.89-4.14-.89a4.27,4.27,0,0,0-.85.1c-2.49.54-2,2.54-3.94,5.15a11.62,11.62,0,0,1,1.3.43,11.29,11.29,0,0,1,4.07,2.89,7,7,0,0,1,3.69-.84,23.24,23.24,0,0,1,6.6,1.16l.11,0c.39,0,.53-.78.24-1.45a3.51,3.51,0,0,1,0-3c.57-1.35,7-7.87,11.55-12h0l.15.09,3,2.23C46.91,50.1,50.16,52,50.16,52l.82-.08a3.53,3.53,0,0,1,.92-.1,2.41,2.41,0,0,1,.48.07l.2,0a2.59,2.59,0,0,1,.38.17l.26.19s0,0,.06,0a2.58,2.58,0,0,1,.78,1.88,2,2,0,0,1-.09.6,2.24,2.24,0,0,1-.33.57,1.09,1.09,0,0,0-.11.1,2.76,2.76,0,0,1-.37.31l-.18.07a2.05,2.05,0,0,1-.49.18h0a3.7,3.7,0,0,1-.75,0c-1.2-.09-2.52-.67-4.1.27s-.93,3.93-1.91,5.2a8.69,8.69,0,0,1,1.86.21,13.38,13.38,0,0,1,4.08,1.83c4.39-1.85,5.72-1.26,10.19-.5.31.06.53-.84.18-1.43A5.34,5.34,0,0,1,61.3,59V48.32h0v0A6,6,0,0,1,59,48.22a3.46,3.46,0,0,1-1.46-.73,0,0,0,0,0,0,0,2.49,2.49,0,0,1-.38-.42l0,0A3.61,3.61,0,0,1,56.63,46,52.1,52.1,0,0,0,54.53,41a11.24,11.24,0,0,0,5.31-1.68,6.24,6.24,0,0,0,1.44-1.29,5.39,5.39,0,0,0,.81-1.32,7.1,7.1,0,0,0,.5-3.91,27.65,27.65,0,0,0-1.89-6.3c-.77-2.06-2.39-5.63-3-7.75a16.34,16.34,0,0,1-.78-3.52,3.53,3.53,0,0,1,0-.65h0a4.62,4.62,0,0,1,.62-1.95,2.68,2.68,0,0,1,2.4-1.5,2.23,2.23,0,0,1,.83.22c.94.46.73.71.63.88a8.64,8.64,0,0,0-.76,1.56A6.69,6.69,0,0,0,60.25,18a8.61,8.61,0,0,0,2.27,3.48A10.62,10.62,0,0,0,64,22.67s1.6,1,1.92.79c.75-.57-1.2-3.31-1.13-4.2a6.91,6.91,0,0,1,.39-1.65A14.56,14.56,0,0,0,65.9,15a6.17,6.17,0,0,0-1.58-5,5.11,5.11,0,0,0-3-1.51A6.13,6.13,0,0,0,55,11.22a6.72,6.72,0,0,0-.66,1.43A6.35,6.35,0,0,0,54,14.79a49.06,49.06,0,0,0-3.95-7.91c-.18-.25-.76-1-1.32-1.55a4.65,4.65,0,0,0-1.13-1A58,58,0,0,0,41,2.9l0,0H41a49.29,49.29,0,0,0-7.1,2.53l-.71.74c-1.44.36-4.43.82-4.65,1.1a1.43,1.43,0,0,0,0,1.83c.07.12.55,1.81,1.4,1.81H32.3a3,3,0,0,1,2.55-1.38,2.89,2.89,0,0,1,2.78,1.94l-.35.15a4.63,4.63,0,0,1-2,.46,7.6,7.6,0,0,1-.78-.05h-.12a6.86,6.86,0,0,0-1-.07,7.73,7.73,0,0,0-2.53.41c-.35.13-.56.26-.56.35,0,.46,2.42.6,3.05.61S35,13.4,36,13.4c.45,0,.93,0,1.37,0a3.38,3.38,0,0,1-.4.44,4.09,4.09,0,0,1-2.58.91H30.67a5.69,5.69,0,0,0,.93,2.11h1.52c.67,0,.75.22.66.52,0,.15-.11.33-.17.53s-.2.53-.33.82a8,8,0,0,1-1.89,3c-3.74-3.26-8.77-7.35-12.3-9.94a10.14,10.14,0,0,0-4.62-.88,8.47,8.47,0,0,0-2.81.4,2.36,2.36,0,0,0-1.22,1.14l1.05.3C9.55,13.86,10.76,16,10.76,16Zm28-9.56.15-.07Zm14,31-.33-.07h0c-1.18-1.72-3.28-4.84-4.36-6.48.77-2.77,1.11-3.44,1.71-6.07a6.15,6.15,0,0,0,1.58.64h0a.16.16,0,0,0,.1,0h0s0,0,0,0c.28-1.17,2.17-6.67,2.5-8.44,0,0,.29.78.68,1.92.33,1,.69,1.9,1,2.78.57,1.36,1.15,2.65,1.66,4a30,30,0,0,1,2,6.22,5.23,5.23,0,0,1-.47,3.87,4.83,4.83,0,0,1-1.69,1.35l-.08,0a5.85,5.85,0,0,1-.63.23l-.14.05-.38.09-.21,0c-.21,0-.43.06-.64.09h-.72c-.21,0-.44,0-.67,0h0c-.15,0-.3,0-.44-.06ZM35.48,7.37a2.87,2.87,0,0,1-.06-1.47,23.74,23.74,0,0,1,3.06-.32.48.48,0,0,1,.29.09.49.49,0,0,1-.08.85c-.72.32-2,.78-3.13,1.13A1.29,1.29,0,0,1,35.48,7.37Z"/></svg>