<svg id="Layer_1" data-name="Layer 1" xmlns="http://www.w3.org/2000/svg" viewBox="0 0 78.26 66.5"><title>speedometer-17</title><path d="M71.58,51.12c.15-.71.27-5.77.28-7.09s0-21-.17-25c0-.56-.38-11.11-.43-12.12s0-1.33-.73-1.44S51.8,3.83,48.91,3.76a243.43,243.43,0,0,0-27,.32c-10.13.56-14.38,5.81-15.29,10a41.86,41.86,0,0,0-.41,6.12c.08,5.37.19,17.7.28,21.41,0,0,.44,15.7.44,16.7s0,1.33.73,1.46,18.73,1.59,21.61,1.67a220.32,220.32,0,0,0,27-.32C71.89,60.25,71.41,51.82,71.58,51.12Zm-2.14-16v4.17s.08.51-.71.29c-2-.57-39.71-9-59.76-12-.21,0-.16-.41-.16-.43V24.16s0-.38.22-.35C16.77,25,36.23,28.16,41,29s26.31,4.81,28.12,5.19C69.49,34.26,69.44,35.14,69.44,35.14ZM9.05,15.48c.84-3.88,4.76-8.71,14.14-9.25a224.9,224.9,0,0,1,25-.29c2.66.07,19.33,1.44,20,1.55s.65.4.67,1.33.38,10.69.41,11.21a.58.58,0,0,1-.65.67c-2,0-25.7-2-30.74-1.91-1.25,0-1.32.7-1.05,1.1a1.11,1.11,0,0,0,.68.34s31.25,5.11,31.75,5.31c.08.05.27.07.27.64v4.64s.18.72-1.06.36C48,26.5,9,21.37,9,21.37c-.25,0-.31-.06-.31-.2A40.18,40.18,0,0,1,9.05,15.48ZM30,59.26c-2.67-.08-19.33-1.44-20-1.55s-.69-.39-.69-1.33-.39-15.44-.39-15.44-.1-.69.68-.58c1.69.23,28.43,2.74,30.92,2.77s1.8-.78,1.75-.91a3.63,3.63,0,0,0-2.15-1.13c-1.35-.34-8.92-2.31-14-3.46l-17-3.86s-.31,0-.33-.41c0-1.26,0-2.87,0-2.87s-.11-.66.38-.6L36.64,35.4c2.42.46,32.47,7.26,32.47,7.26s.29,0,.28.51c0,1.23-.13,5.9-.28,6.56S69.41,58.15,55,59A199.82,199.82,0,0,1,30,59.26Z"/></svg>