<svg id="Layer_1" data-name="Layer 1" xmlns="http://www.w3.org/2000/svg" viewBox="0 0 78.26 66.5"><title>speedometer-17</title><path d="M12.07,16.5C4.67,20.89,0,26.85,0,32.9s4.65,12,12,16.28A54.35,54.35,0,0,0,39,56c10.45,0,20-2.69,27.13-6.84C73.54,44.86,78.2,39,78.2,32.9s-4.69-12-12.12-16.41A54.3,54.3,0,0,0,39,9.58,53.88,53.88,0,0,0,12.07,16.5Zm65,16.4c0,5.63-4.45,11.18-11.5,15.31A53.7,53.7,0,0,1,39,54.9a53.17,53.17,0,0,1-26.4-6.69c-7-4.14-11.46-9.68-11.46-15.31S5.6,21.66,12.64,17.49A52.63,52.63,0,0,1,39,10.71c10.19,0,19.59,2.67,26.49,6.77C72.59,21.65,77.06,27.27,77.06,32.9Z"/><polygon points="24.66 15.7 21.03 24.87 4.97 28.32 21.03 31.74 24.85 41.51 28.68 31.95 46.08 28.32 28.48 24.5 24.66 15.7"/><polygon points="44.55 33.48 37.65 35 44.55 36.55 46.26 40.73 47.8 36.74 55.25 35 47.8 33.48 46.08 29.66 44.55 33.48"/><polygon points="64.42 29.66 62.71 33.48 56.01 35 62.71 36.55 64.42 40.73 65.96 36.74 73.42 35 65.96 33.48 64.42 29.66"/><polygon points="59.66 29.48 61.19 25.25 68.64 23.73 61.19 22.18 59.46 18.36 57.92 22.18 51.05 23.73 57.92 25.25 59.66 29.48"/><polygon points="52.58 38.83 50.85 42.66 44.17 44.18 50.85 45.71 52.58 49.72 54.29 45.71 61.76 44.18 54.1 42.46 52.58 38.83"/><polygon points="32.69 39.97 31.17 44.01 24.28 45.53 31.17 46.87 32.89 51.06 34.41 47.05 41.87 45.53 34.41 43.8 32.69 39.97"/></svg>