<svg id="Layer_1" data-name="Layer 1" xmlns="http://www.w3.org/2000/svg" viewBox="0 0 81.5 66.5"><title>speedometer</title><path d="M40.75,58.31C63,58.31,81,47,81,33.12S63,7.92,40.75,7.92.48,19.22.48,33.12,18.55,58.31,40.75,58.31ZM34.47,32.7h0c0,7.32,1.86,13.2,4.41,15.14C36.33,45.9,34.47,40,34.47,32.7Zm.4-16.1.14-.26h0Zm.24,10.48h0l-.29.21h0Zm5.64,18.79c-2.27,0-4.7-5.14-4.79-12.84,1.57.12,3.17.19,4.79.19S44,33.15,45.54,33C45.45,40.73,43,45.87,40.75,45.87Zm0-19.75c-1.41,0-2.8-.05-4.17-.14.84-4,2.44-6.63,4.17-6.63s3.33,2.59,4.17,6.63C43.55,26.07,42.16,26.12,40.75,26.12Zm5.64,1,.12.09-.12-.09ZM42.62,47.84C45.17,45.9,47,40,47,32.7h0C47,40,45.17,45.9,42.62,47.84Zm4.37-17h0c0,.6,0,1.2,0,1.82C47,32.08,47,31.48,47,30.89ZM67.67,20.34s0,.08,0,.11,0-.14,0-.22v.1h0Zm-.06.55h0a.29.29,0,0,1,0,.09h0A.44.44,0,0,0,67.61,20.89Zm.25,2c3.48,3.16,5.33,6.8,5.33,10.6,0,9.42-11.38,17.44-26.73,19.08,3.23-3.85,5.19-11,5.19-19.23,0,0,0-.61,0-1.09C60.19,30.6,66.24,27.09,67.86,22.88ZM50,30.51h0l.18,0ZM49.65,27h0l.19-.23Zm3.47-.61c.68-.15,1.34-.31,2-.48C54.46,26,53.8,26.2,53.12,26.35Zm12.12-1.63h0c-.11.1-.23.21-.35.3C65,24.93,65.13,24.82,65.24,24.72Zm-4.42-5.44a1.71,1.71,0,0,1,.12.62,2,2,0,0,1-.3,1c-1.07,1.82-4.68,3.42-9.7,4.34-.88-4.88-2.58-8.9-4.78-11.39C53.88,14.57,59.94,16.77,60.82,19.28ZM46.61,16.57a1.62,1.62,0,0,0-.1-.18h0A.81.81,0,0,1,46.61,16.57Zm.07,10.72h0a21.2,21.2,0,0,0-2.25-7.55A21.2,21.2,0,0,1,46.68,27.29ZM36,22.17c-.19.53-.36,1.11-.52,1.72C35.63,23.28,35.8,22.7,36,22.17ZM20.67,19.28c.9-2.52,6.94-4.71,14.67-5.42-2.2,2.49-3.9,6.51-4.78,11.39-5-.92-8.64-2.52-9.7-4.34a2,2,0,0,1-.3-1A1.93,1.93,0,0,1,20.67,19.28ZM30.94,31.19h0l.58-.68h0l-.21,0,.21,0h0Zm-4.44-5.3c.58.16,1.18.31,1.8.44C27.68,26.2,27.08,26.05,26.5,25.89ZM13.91,21h0a.29.29,0,0,1,0-.09h0A.36.36,0,0,0,13.91,21Zm-.08-.55s0-.06,0-.1v0h0v-.08C13.82,20.31,13.83,20.37,13.83,20.44Zm-.19,2.44c1.62,4.21,7.67,7.72,16.23,9.36,0,.48,0,1.09,0,1.09,0,8.26,2,15.38,5.19,19.23C19.69,50.92,8.31,42.9,8.31,33.48,8.31,29.68,10.16,26,13.64,22.88ZM5.36,32.69c0,.12,0,.24,0,.37,0,11.47,13.93,20.91,31.79,22C19.27,54,5.34,44.53,5.34,33.06,5.34,32.93,5.35,32.81,5.36,32.69Z"/></svg>