<svg id="Layer_1" data-name="Layer 1" xmlns="http://www.w3.org/2000/svg" viewBox="0 0 81.5 66.5"><title>speedometer</title><path d="M46.58,9.24A25,25,0,0,0,34,9.21L40.3,26.62Z"/><path d="M65.08,33.31a24.76,24.76,0,0,0-1.57-8.81L51.68,55.37A24.93,24.93,0,0,0,65.08,33.31Z"/><path d="M52.73,11.8,45.44,31.87H35.17L27.85,11.71a25.2,25.2,0,0,0-7,6l10.4,27L35,34.83H45l3.8,9.85L59.32,17.4A24.74,24.74,0,0,0,52.73,11.8Z"/><path d="M40.22.1A33.2,33.2,0,1,0,73.41,33.31,33.28,33.28,0,0,0,40.22.1Zm0,62.15a29,29,0,1,1,29-28.94A29,29,0,0,1,40.22,62.25Z"/><path d="M40,40.11,33.59,56.76l0,.52a24.52,24.52,0,0,0,6.67.89,25.48,25.48,0,0,0,6.28-.78l-.08-.63Z"/><path d="M15.34,33.31A24.83,24.83,0,0,0,28.28,55.1L16.75,25A24.35,24.35,0,0,0,15.34,33.31Z"/></svg>