<svg id="Layer_1" data-name="Layer 1" xmlns="http://www.w3.org/2000/svg" viewBox="0 0 81.5 66.5"><title>speedometer</title><path d="M72.92,26.53a1,1,0,0,0-.63-.2H69.52a30,30,0,0,0-3.37-7.13l4.62-4.38,3,3.5a1.08,1.08,0,0,0,1.18.3,1,1,0,0,0,.68-1l-.21-16.3a1.07,1.07,0,0,0-.34-.75,1,1,0,0,0-.78-.29l-16.82,1A1.06,1.06,0,0,0,57,3.15l4,2.92-4,3.9A30.93,30.93,0,0,0,10.84,26.33H8.38a1,1,0,0,0-.57.16c-.24.15-5.66,3.76-5.81,9.08-.09,3.3,1.85,6.41,5.76,9.28a1.08,1.08,0,0,0,.62.21H11a30.87,30.87,0,0,0,58.45,0h2.89a1,1,0,0,0,.6-.2c.23-.15,5.47-3.85,5.57-9.19C78.52,32.41,76.65,29.33,72.92,26.53ZM40.18,7.19a28.74,28.74,0,0,1,16.28,5,1.06,1.06,0,0,0,1.33-.12l5.55-5.38a1.09,1.09,0,0,0,.32-.84,1,1,0,0,0-.44-.77L60.6,3.18l12.74-.72.16,12.28-1.85-2.16a1.08,1.08,0,0,0-1.53-.06l-6.07,5.75a1,1,0,0,0-.14,1.36,28.49,28.49,0,0,1,3.38,6.7H59.37a21,21,0,0,0-38.06,0H13.08A28.67,28.67,0,0,1,40.18,7.19ZM57,26.33H23.67a18.86,18.86,0,0,1,33.33,0ZM40.18,63.86a28.68,28.68,0,0,1-27-18.8H21.7a21,21,0,0,0,37.27,0h8.19A28.68,28.68,0,0,1,40.18,63.86ZM24.12,45.06H56.55a18.88,18.88,0,0,1-32.43,0Zm47.82-2.12H8.74c-3.13-2.37-4.68-4.82-4.62-7.3.09-3.65,3.63-6.48,4.6-7.2H71.93c3,2.3,4.45,4.72,4.41,7.18C76.28,39.28,72.89,42.19,71.94,42.94Z"/><polygon points="23.55 31.77 21.75 31.77 19.61 31.77 17.45 31.77 17.45 32.97 19.08 32.97 16.26 38.19 13.21 32.99 15.44 32.98 15.43 31.77 11.78 31.77 9.64 31.77 6.58 31.77 6.58 32.99 8.62 32.99 9.43 34.48 11.7 38.66 12.61 40.32 17.52 40.32 19.38 36.91 21.51 32.98 21.57 32.98 23.55 32.96 23.55 31.77"/><path d="M29,31.53c-3.47,0-6.28,2-6.28,4.51s2.81,4.52,6.28,4.52,6.27-2,6.27-4.52S32.5,31.53,29,31.53ZM29,39.21c-.91,0-1.64-1.45-1.64-3.26S28,32.7,29,32.7s1.64,1.45,1.64,3.25S29.85,39.21,29,39.21Z"/><path d="M68.55,31.53h-.13c-3.47,0-6.28,2-6.28,4.51s2.79,4.5,6.23,4.52h0a8.27,8.27,0,0,0,2.15-.28C73,39.64,74.7,38,74.7,36s-1.65-3.54-4-4.2A8.42,8.42,0,0,0,68.55,31.53Zm0,7.63a.75.75,0,0,1-.26.05c-.91,0-1.64-1.45-1.64-3.26s.73-3.25,1.64-3.25a.86.86,0,0,1,.36.08C69.42,33.1,70,34.4,70,36S69.37,38.92,68.59,39.16Z"/><path d="M44.08,39H42V33h2V31.77H35.9V33h2v6H35.8v1.33H48.13v-4H46.8A2.7,2.7,0,0,1,44.08,39Z"/><polygon points="62.91 31.77 61.07 31.77 58.92 31.77 56.81 31.77 56.81 32.97 58.44 32.97 55.62 38.19 52.57 32.99 54.79 32.98 54.79 31.77 45.93 31.77 45.93 32.99 47.98 32.99 51.97 40.32 56.88 40.32 59.23 35.99 60.87 32.98 61.23 32.98 62.91 32.96 62.91 31.77"/></svg>