<svg id="Layer_1" data-name="Layer 1" xmlns="http://www.w3.org/2000/svg" viewBox="0 0 41.09 41.09"><title>speedometer</title><g id="Page-1"><g id="_007---Car-Insurance" data-name="007---Car-Insurance"><path id="Shape" d="M25.07,18.17,30.42,22a.69.69,0,0,0,.8,0l5.35-3.8a4.26,4.26,0,0,0,1.79-3.44V6.63A.7.7,0,0,0,37.94,6L31.1,3a.75.75,0,0,0-.55,0L23.7,6a.69.69,0,0,0-.41.63v8.1A4.25,4.25,0,0,0,25.07,18.17ZM24.66,7.08l6.16-2.66L37,7.08v7.65a2.85,2.85,0,0,1-1.22,2.32l-5,3.53-4.95-3.53a2.83,2.83,0,0,1-1.21-2.32Z"/><path id="Shape-2" data-name="Shape" d="M29,16.3a.69.69,0,0,0,.95-.12l5.48-6.85a.69.69,0,0,0-.11-1,.67.67,0,0,0-1,.11l-5.07,6.33-2.21-1.66a.67.67,0,0,0-.68-.08.68.68,0,0,0-.41.55.7.7,0,0,0,.27.63Z"/><path id="Shape-3" data-name="Shape" d="M1.37,36.3h.68V39a2.05,2.05,0,0,0,2.06,2.05H8.22a2.05,2.05,0,0,0,2-2.05V36.3H26.71V39a2.05,2.05,0,0,0,2.06,2.05h4.11a2.05,2.05,0,0,0,2-2.05V36.3h.69A1.37,1.37,0,0,0,37,34.93V24.66a3.39,3.39,0,0,0-1.19-2.59l2.36-1.67a7,7,0,0,0,2.93-5.67V4.83a.66.66,0,0,0-.41-.63L31.1.06a.66.66,0,0,0-.55,0L21,4.2a.68.68,0,0,0-.41.63v2.7H10.18A3.41,3.41,0,0,0,7,9.82l-4,11.46A3.42,3.42,0,0,0,0,24.66V34.93A1.37,1.37,0,0,0,1.37,36.3ZM8.9,39a.67.67,0,0,1-.68.68H4.11A.68.68,0,0,1,3.42,39V36.3H8.9ZM6.16,34.93H4.79V33.56H6.16ZM33.56,39a.68.68,0,0,1-.68.68H28.77a.68.68,0,0,1-.69-.68V36.3h5.48Zm-1.37-4.11H30.82V33.56h1.37ZM21.92,5.28l8.9-3.85,8.91,3.85v9.45a5.61,5.61,0,0,1-2.37,4.55l-6.54,4.66-6.54-4.66a5.56,5.56,0,0,1-2.36-4.55ZM32.19,25.34a.69.69,0,0,1,.69.69V27.4a.69.69,0,0,1-.69.68H28.08a.68.68,0,0,1-.68-.68,2.05,2.05,0,0,1,2.05-2.06ZM20.55,11.64V13h-4.8V11.64Zm0-1.37H19.18V8.9h1.37Zm-12.3,0A2,2,0,0,1,10.18,8.9h7.63v1.37H15.75a1.38,1.38,0,0,0-1.37,1.37V13a1.37,1.37,0,0,0,1.37,1.37h4.8v.35a7,7,0,0,0,2.94,5.67l1.17.83H4.39ZM1.37,24.66A2.05,2.05,0,0,1,3.42,22.6H26.58l2.07,1.48A3.42,3.42,0,0,0,26,27.4a2.05,2.05,0,0,0,2,2.05h4.11a2.05,2.05,0,0,0,2.06-2.05V26a2.06,2.06,0,0,0-1.32-1.91l1.7-1.21a2,2,0,0,1,1,1.75V34.93H33.56V33.56a1.37,1.37,0,0,0-1.37-1.37H30.82a1.37,1.37,0,0,0-1.37,1.37v1.37H7.53V33.56a1.37,1.37,0,0,0-1.37-1.37H4.79a1.37,1.37,0,0,0-1.37,1.37v1.37h-2Z"/><path id="Shape-4" data-name="Shape" d="M12.33,10.27H11.16a2.06,2.06,0,0,0-1.94,1.37L6.65,19a.67.67,0,0,0,.42.87.68.68,0,0,0,.87-.42l2.57-7.3a.7.7,0,0,1,.65-.46h1.17A.67.67,0,0,0,13,11,.68.68,0,0,0,12.33,10.27Z"/><path id="Shape-5" data-name="Shape" d="M4.79,29.45H8.9A2.05,2.05,0,0,0,11,27.4,3.44,3.44,0,0,0,7.53,24H4.79a2.05,2.05,0,0,0-2,2.06V27.4A2.05,2.05,0,0,0,4.79,29.45ZM4.11,26a.69.69,0,0,1,.68-.69H7.53A2.06,2.06,0,0,1,9.59,27.4a.69.69,0,0,1-.69.68H4.79a.69.69,0,0,1-.68-.68Z"/><path id="Shape-6" data-name="Shape" d="M13.7,33.56h9.59a1.37,1.37,0,0,0,1.37-1.37V29.45a1.37,1.37,0,0,0-1.37-1.37H13.7a1.37,1.37,0,0,0-1.37,1.37v2.74A1.37,1.37,0,0,0,13.7,33.56Zm0-4.11h9.59v2.74H13.7Z"/></g></g></svg>