<svg id="Слой_1" data-name="Слой 1" xmlns="http://www.w3.org/2000/svg" viewBox="0 0 59.83 59.83"><defs><style>.cls-1{fill:#010101;}</style></defs><title>Безымянный-3 [Восстановлен]</title><rect class="cls-1" x="5.78" y="38.74" width="1.92" height="1.92"/><path class="cls-1" d="M18.24,38.74H9.61v1.92h8.63a1,1,0,0,1,1,1v3.83h1.92V41.62A2.89,2.89,0,0,0,18.24,38.74Z"/><path class="cls-1" d="M52.74.41H37.41a6.72,6.72,0,0,0-6.71,6.7V45.45a6.72,6.72,0,0,0,6.71,6.71h6.64c-.61,5.45-6.39,5.75-7.6,5.75-2.93,0-7.65-1.16-11.94-2.44A6.54,6.54,0,0,0,25,53.12V41.62A6.72,6.72,0,0,0,19.2,35V6.72L12.49,0,4.55,8l2,3L4.63,13.82,6.55,16.7,4.68,19.5l1.1,2.22V35A6.71,6.71,0,0,0,0,41.62v11.5a6.72,6.72,0,0,0,6.71,6.71h11.5a6.71,6.71,0,0,0,5.32-2.64c4.52,1.36,9.63,2.64,12.89,2.64,4.5,0,9-2.39,9.53-7.67h6.76a6.72,6.72,0,0,0,6.71-6.71V7.11A6.72,6.72,0,0,0,52.74.41ZM6.93,13.82,8.85,11,7,8.19l5.48-5.47,4.79,4.79v27.4H13.45V11H11.53v24H7.7V21.26l-.81-1.62,2-2.94ZM23,53.12a4.84,4.84,0,0,1-.35,1.79c-1.67-.52-3.2-1-4.47-1.46,0-.11,0-.22,0-.33a2.88,2.88,0,0,0-2.88-2.88H9.61a2.88,2.88,0,0,0,0,5.75h5.75a2.88,2.88,0,0,0,2-.8c1.19.41,2.63.89,4.19,1.38a4.73,4.73,0,0,1-3.3,1.34H6.74A4.8,4.8,0,0,1,2,53.12V41.62a4.8,4.8,0,0,1,4.79-4.8h11.5A4.8,4.8,0,0,1,23,41.62Zm-8.8,1H9.61a1,1,0,0,1,0-1.91h5.75a1,1,0,0,1,.89.61l-1.51-.55L14.07,54Zm43.3-8.62a4.8,4.8,0,0,1-4.79,4.79H37.41a4.8,4.8,0,0,1-4.79-4.79V7.11a4.8,4.8,0,0,1,4.79-4.79H52.74a4.8,4.8,0,0,1,4.79,4.79Z"/><path class="cls-1" d="M48,6.16H42.2a6.72,6.72,0,0,0-6.71,6.7V39.7a6.72,6.72,0,0,0,6.71,6.71H48a6.72,6.72,0,0,0,6.71-6.71V12.86A6.72,6.72,0,0,0,48,6.16ZM52.74,39.7A4.8,4.8,0,0,1,48,44.49H42.2a4.8,4.8,0,0,1-4.79-4.79V27.24H52.74Zm0-14.38H37.41V12.86A4.8,4.8,0,0,1,42.2,8.07H48a4.8,4.8,0,0,1,4.79,4.79Z"/><path class="cls-1" d="M47,11H43.16a3,3,0,0,0-2.88,2.87H42.2a1.12,1.12,0,0,1,1-1H47a1.12,1.12,0,0,1,1,1v1.92H40.28v6.71h9.59V13.82A3,3,0,0,0,47,11Zm1,9.58H42.2V17.66H48Z"/><path class="cls-1" d="M49.87,33A3,3,0,0,0,47,30.12H43.16A3,3,0,0,0,40.28,33v8.63h9.59V33ZM48,39.7H42.2V36.82H48Zm0-4.79H42.2V33a1.12,1.12,0,0,1,1-1H47a1.12,1.12,0,0,1,1,1v1.92Z"/><rect class="cls-1" x="35.49" y="4.24" width="1.92" height="1.92"/><rect class="cls-1" x="46.99" y="47.37" width="1.92" height="1.92"/><rect class="cls-1" x="50.82" y="47.37" width="1.92" height="1.92"/></svg>