<svg id="Слой_1" data-name="Слой 1" xmlns="http://www.w3.org/2000/svg" viewBox="0 0 22.9 18.01"><defs><style>.cls-1{fill:#010101;}</style></defs><title>Безымянный-3 [Восстановлен]</title><path class="cls-1" d="M22.9,9a9,9,0,0,0-9-9,8.64,8.64,0,0,0-1.62.15,9,9,0,0,1,0,17.71,8.64,8.64,0,0,0,1.62.15A9,9,0,0,0,22.9,9Z"/><path class="cls-1" d="M17.43,9a8.72,8.72,0,1,0-8.71,8.72A8.71,8.71,0,0,0,17.43,9Zm-7,4.72a.65.65,0,0,1-.65.65H8.63A.65.65,0,0,1,8,13.72V6.48l-.74.4a.67.67,0,0,1-.57,0,.65.65,0,0,1-.36-.43l-.24-.93a.65.65,0,0,1,.32-.73l2-1.1a.67.67,0,0,1,.31-.07H9.82a.65.65,0,0,1,.65.64v9.44Z"/></svg>