<svg id="Слой_1" data-name="Слой 1" xmlns="http://www.w3.org/2000/svg" viewBox="0 0 22.64 24.23"><defs><style>.cls-1{fill:#010101;}</style></defs><title>Безымянный-3 [Восстановлен]</title><path class="cls-1" d="M22.56,20.44l-2.78-6a10.31,10.31,0,0,1-6.7,4.31l2.33,5a.78.78,0,0,0,1.45-.06l1.2-3.27.24-.12,3.28,1.19A.78.78,0,0,0,22.56,20.44Z"/><path class="cls-1" d="M11.32,0A8.69,8.69,0,1,0,20,8.68,8.7,8.7,0,0,0,11.32,0Zm4.22,8.05L14,9.55l.37,2.12a.79.79,0,0,1-1.15.83l-1.9-1-1.91,1a.79.79,0,0,1-1.14-.83l.36-2.12L7.09,8.05A.79.79,0,0,1,7.53,6.7l2.13-.31.95-1.93a.8.8,0,0,1,1.42,0l1,1.93,2.13.31A.79.79,0,0,1,15.54,8.05Z"/><path class="cls-1" d="M2.85,14.48l-2.77,6a.78.78,0,0,0,1,1.07l3.28-1.19.24.12,1.19,3.27a.79.79,0,0,0,1.46.06l2.33-5A10.33,10.33,0,0,1,2.85,14.48Z"/></svg>