<svg id="Слой_1" data-name="Слой 1" xmlns="http://www.w3.org/2000/svg" viewBox="0 0 59.83 59.83"><defs><style>.cls-1{fill:#010101;}</style></defs><title>Безымянный-3 [Восстановлен]</title><path class="cls-1" d="M58.83,18.88h-2a3,3,0,0,0-3,3v7h-2v-10a3,3,0,0,0-3-3h-7v-4h14a1,1,0,0,0,.83-1.55l-4-6a1,1,0,0,0-.83-.45H23.93a1,1,0,0,0-.83.45l-4,6a1,1,0,0,0-.05,1,1,1,0,0,0,.88.53h15v4H27a1,1,0,0,0-.94.66l-2.3,6.32H14a1,1,0,0,0-.8.4l-2.69,3.59H9a1,1,0,0,0-1,1v11H6v-7a3,3,0,0,0-3-3H1a1,1,0,0,0-1,1V53.78a1,1,0,0,0,1,1H3a3,3,0,0,0,3-3v-7H8v8a3,3,0,0,0,3,3H32.8a1,1,0,0,0,1-.68l1.44-4.3H46.86a1,1,0,0,0,.9-.55l1.71-3.44h1.38a1,1,0,0,0,1-1v-11h2v7a3,3,0,0,0,3,3h2a1,1,0,0,0,1-1V19.88A1,1,0,0,0,58.83,18.88ZM4,51.78a1,1,0,0,1-1,1H2V30.85H3a1,1,0,0,1,1,1Zm2-9v-2H8v2ZM24.46,5.92H51.32l2.65,4H21.8Zm12.43,6h3v4h-3Zm-22.43,13h8.6l-.73,2H13ZM46.25,48.79H35.85l.67-2H47.24Zm3.6-4H35.8a1,1,0,0,0-.95.69l-2.76,8.29H11a1,1,0,0,1-1-1V28.85H23a1,1,0,0,0,.94-.66l3.75-10.31H48.86a1,1,0,0,1,1,1Zm4-12h-2v-2h2Zm4,10h-1a1,1,0,0,1-1-1V21.87a1,1,0,0,1,1-1h1Z"/><path class="cls-1" d="M45.87,26.86H41.5l1.28-2.55a1,1,0,0,0-.05-1,1,1,0,0,0-.85-.47h-5a1,1,0,0,0-.91.6l-3,7a1,1,0,0,0,.09.94,1,1,0,0,0,.83.45h3.6L35,39.5a1,1,0,0,0,1.71,1l10-12a1,1,0,0,0-.76-1.63Zm-7.36,8.26,1.32-4a1,1,0,0,0-.14-.9,1,1,0,0,0-.8-.41H35.41l2.14-5h2.71L39,27.41a1,1,0,0,0,.89,1.44h3.86Z"/><path class="cls-1" d="M14,32.84h2v2H14Z"/><path class="cls-1" d="M18,32.84h6v2H18Z"/><path class="cls-1" d="M25.92,32.84h2v2h-2Z"/><path class="cls-1" d="M14,37.82h2v2H14Z"/><path class="cls-1" d="M18,37.82h6v2H18Z"/><path class="cls-1" d="M25.92,37.82h2v2h-2Z"/><path class="cls-1" d="M14,42.81h2v2H14Z"/><path class="cls-1" d="M18,42.81h6v2H18Z"/><path class="cls-1" d="M25.92,42.81h2v2h-2Z"/><path class="cls-1" d="M14,47.8h2v2H14Z"/><path class="cls-1" d="M18,47.8h6v2H18Z"/><path class="cls-1" d="M25.92,47.8h2v2h-2Z"/></svg>