<svg id="Слой_1" data-name="Слой 1" xmlns="http://www.w3.org/2000/svg" viewBox="0 0 59.83 59.83"><defs><style>.cls-1{fill:#010101;}</style></defs><title>Безымянный-3 [Восстановлен]</title><path class="cls-1" d="M5.22,40,.35,44.09l1.23,1.48L7.05,41a11.4,11.4,0,0,0,4.53.93,11,11,0,0,0,6.23-2,15.39,15.39,0,0,0,24.33-.17l-.21.31a11.52,11.52,0,0,0,6.32,1.88A11.38,11.38,0,0,0,52.77,41l5.47,4.56,1.24-1.48L54.6,40A11.57,11.57,0,0,0,41.93,20.66l.16.24a15.4,15.4,0,0,0-24.28-.11,11,11,0,0,0-6.23-2A11.58,11.58,0,0,0,5.22,40Zm43-19.32A9.65,9.65,0,1,1,43,38.47a15.3,15.3,0,0,0,2.33-8.11,15.12,15.12,0,0,0-.69-4.54,5.71,5.71,0,0,1,2.62-1.17V26.5h1.93V24.65A5.67,5.67,0,0,1,54,30.36a6.11,6.11,0,0,1-1.4,3.86h-1.5v1.93h2.33l.29-.29A7.94,7.94,0,0,0,56,30.36a7.73,7.73,0,0,0-12-6.41,15.47,15.47,0,0,0-.92-1.7A9.6,9.6,0,0,1,48.25,20.71ZM29.91,16.85A13.51,13.51,0,1,1,16.4,30.36,13.52,13.52,0,0,1,29.91,16.85ZM11.58,20.71a9.05,9.05,0,0,1,5.11,1.65l.12-.13A17.76,17.76,0,0,0,15.88,24,7.72,7.72,0,0,0,6.06,35.76l1.38-1.35a5.79,5.79,0,0,1-1.56-3.09H7.72V29.39H5.88a5.78,5.78,0,0,1,4.73-4.74V26.5h1.93V24.65a5.8,5.8,0,0,1,2.62,1.16,15.29,15.29,0,0,0,1.65,12.67l-.12-.12A9.13,9.13,0,0,1,11.58,40a9.65,9.65,0,0,1,0-19.3Z"/><path class="cls-1" d="M20.42,36.67l.47.73,2.7-1.35-.86-1.73-1.14.57a10,10,0,0,1-1.26-3.57h1.86V29.39H20.31a9.65,9.65,0,0,1,.85-3.07l1.46,1,1.07-1.61-1.55-1a9.67,9.67,0,0,1,2.07-2.07l1,1.55,1.6-1.07-1-1.47A9.57,9.57,0,0,1,29,20.76v1.88h1.93V20.76A9.71,9.71,0,0,1,34,21.6l-1,1.47,1.6,1.07,1-1.55a9.67,9.67,0,0,1,2.07,2.07l-1.55,1L37.2,27.3l1.47-1a9.64,9.64,0,0,1,.84,3.07H37.63v1.93h1.86a9.84,9.84,0,0,1-1.26,3.57l-1.13-.57-.87,1.73,2.7,1.35.47-.73a11.51,11.51,0,0,0,2.09-6.31,11.58,11.58,0,0,0-23.16,0A11.59,11.59,0,0,0,20.42,36.67Z"/><rect class="cls-1" x="25.09" y="38.08" width="9.65" height="1.93"/><rect class="cls-1" x="27.98" y="40.97" width="3.86" height="1.93"/><polygon class="cls-1" points="31.84 34.22 31.84 32.29 30.36 32.29 25.83 26.84 24.35 28.08 27.98 32.44 27.98 34.22 31.84 34.22"/><rect class="cls-1" x="12.54" y="36.15" width="1.93" height="1.93"/><rect class="cls-1" x="8.68" y="36.15" width="1.93" height="1.93"/><rect class="cls-1" x="47.28" y="36.15" width="1.93" height="1.93"/><rect class="cls-1" x="47.76" y="29.88" width="4.83" height="1.93" transform="translate(-8.47 36.29) rotate(-36.88)"/><rect class="cls-1" x="10.61" y="27.46" width="1.93" height="3.86"/><rect class="cls-1" x="57.89" y="57.37" width="1.93" height="1.93"/><rect class="cls-1" y="57.37" width="55.96" height="1.93"/><rect class="cls-1" x="28.95" y="0.45" width="1.93" height="7.72"/><rect class="cls-1" x="28.95" y="10.09" width="1.93" height="1.93"/><rect class="cls-1" x="19.78" y="1.54" width="1.93" height="12.28" transform="translate(0.64 16.92) rotate(-45)"/><rect class="cls-1" x="32.94" y="6.72" width="12.28" height="1.93" transform="translate(6.01 29.88) rotate(-45)"/><path class="cls-1" d="M19.3,51.59H40.53a3.87,3.87,0,0,1,3.86,3.86h1.93a5.79,5.79,0,0,0-5.79-5.79H19.3a5.79,5.79,0,0,0-5.79,5.79h1.93A3.86,3.86,0,0,1,19.3,51.59Z"/><rect class="cls-1" x="16.4" y="43.87" width="1.93" height="1.93"/><rect class="cls-1" x="12.54" y="43.87" width="1.93" height="1.93"/><rect class="cls-1" x="41.49" y="43.87" width="1.93" height="1.93"/></svg>