<svg id="Слой_1" data-name="Слой 1" xmlns="http://www.w3.org/2000/svg" viewBox="0 0 17.23 17.23"><defs><style>.cls-1{fill:#dedede;}</style></defs><title>Безымянный-3 [Восстановлен]</title><g id="phone-in-talk"><path class="cls-1" d="M16.27,12a10.83,10.83,0,0,1-3.44-.57,1.17,1.17,0,0,0-1,.19L9.76,13.69A14.86,14.86,0,0,1,3.45,7.37l2.1-2.11a.75.75,0,0,0,.19-1A13.22,13.22,0,0,1,5.26,1a.9.9,0,0,0-1-1H1A.9.9,0,0,0,0,1,16.26,16.26,0,0,0,16.27,17.23a.9.9,0,0,0,1-1V12.92A.91.91,0,0,0,16.27,12Zm-1-3.35h1.92A8.58,8.58,0,0,0,8.61,0V1.91A6.66,6.66,0,0,1,15.31,8.61Zm-3.82,0H13.4A4.74,4.74,0,0,0,8.61,3.83V5.74A2.83,2.83,0,0,1,11.49,8.61Z"/></g></svg>