<svg id="Слой_1" data-name="Слой 1" xmlns="http://www.w3.org/2000/svg" viewBox="0 0 59.83 59.83"><defs><style>.cls-1{fill:#010101;}</style></defs><title>Безымянный-3 [Восстановлен]</title><path class="cls-1" d="M32.81,6.75h-27V20.26h27V6.75ZM30.88,18.33H7.72V8.68H30.88v9.65ZM19.3,27A10.62,10.62,0,1,0,29.91,37.63,10.63,10.63,0,0,0,19.3,27ZM11.42,41.26a8.67,8.67,0,0,1,11.5-11.51Zm1,1.69L24.62,30.78a9.23,9.23,0,0,1,1.53,1.53L14,44.48A8.52,8.52,0,0,1,12.45,43ZM28,37.63a8.69,8.69,0,0,1-8.68,8.69,8.57,8.57,0,0,1-3.62-.81L27.18,34A8.6,8.6,0,0,1,28,37.63ZM18.33,24.12h1.93v1.93H18.33Zm0,25.09h1.93v1.93H18.33ZM30.88,36.67h1.93V38.6H30.88Zm-25.09,0H7.72V38.6H5.79Zm23.84-7.44-1.36,1.36-1.93-1.92L27.7,27.3ZM10.9,48,9,46l1.36-1.36,1.93,1.93Zm16.8,0L26.34,46.6l1.93-1.93L29.63,46ZM12.26,28.67,10.33,30.6,9,29.23,10.9,27.3ZM9.65,10.61h1.93V16.4H9.65Zm3.86,0h1.93V16.4H13.51Zm13.51,0H29v1.93H27Zm-9.65,0H19.3v1.93H17.37ZM27,14.47H29V16.4H27Zm32.81-1h-1V6.75H56.93V0H55V6.75H53.07v6.76h-1v1.93h1v7.72A2.9,2.9,0,0,0,55,25.88V44.39A11.59,11.59,0,0,1,43.42,56H38.6V50.18h1.93a6.76,6.76,0,0,0,6.75-6.76V25.88a2.9,2.9,0,0,0,1.93-2.72V15.44h1V13.51h-1V6.75H47.28V0H45.35V6.75H43.42v6.76h-1v1.93h1v7.72a2.9,2.9,0,0,0,1.93,2.72V43.42a4.83,4.83,0,0,1-4.82,4.83H38.6V2.89A2.9,2.9,0,0,0,35.7,0H2.89A2.9,2.9,0,0,0,0,2.89v54a2.9,2.9,0,0,0,2.89,2.9H35.7a2.89,2.89,0,0,0,2.72-1.93h5A13.52,13.52,0,0,0,56.93,44.39V25.88a2.9,2.9,0,0,0,1.93-2.72V15.44h1V13.51ZM45.35,8.68h1.93v4.83H45.35Zm0,6.76h1.93v7.72a1,1,0,0,1-1.93,0V15.44ZM36.67,56.93a1,1,0,0,1-1,1H2.89a1,1,0,0,1-1-1v-54a1,1,0,0,1,1-1H35.7a1,1,0,0,1,1,1ZM56.93,23.16a1,1,0,0,1-1.93,0V15.44h1.93Zm0-9.65H55V8.68h1.93ZM3.86,53.07H7.72V55H3.86Zm27,0h3.86V55H30.88Z"/></svg>