<svg id="Слой_1" data-name="Слой 1" xmlns="http://www.w3.org/2000/svg" viewBox="0 0 59.83 59.83"><defs><style>.cls-1{fill:#010101;}</style></defs><title>Безымянный-3 [Восстановлен]</title><path class="cls-1" d="M37.47,7.92l1.36-1.36a8.67,8.67,0,0,0-12.24,0L28,7.92A6.75,6.75,0,0,1,37.47,7.92Z"/><path class="cls-1" d="M50,17.5a3.85,3.85,0,0,0-3.85-3.85v1.92a1.93,1.93,0,0,1,0,3.85v1.92A3.85,3.85,0,0,0,50,17.5Z"/><path class="cls-1" d="M54.84,15.57H53.62A7.7,7.7,0,0,0,46.18,9.8a8,8,0,0,0-1.29.11A12.55,12.55,0,0,0,32.71.18,12.41,12.41,0,0,0,22.58,5.37,7.65,7.65,0,0,0,20.2,5a7.74,7.74,0,0,0-7.13,4.82,7.72,7.72,0,0,0-7,5.76H4.81A4.82,4.82,0,0,0,0,20.38V49.24a4.82,4.82,0,0,0,4.81,4.81H17.32V57.9H13.47v1.93H46.18V57.9H42.33V54.05H54.84a4.82,4.82,0,0,0,4.81-4.81V20.38A4.82,4.82,0,0,0,54.84,15.57Zm-50,1.93h1a7.7,7.7,0,0,0,7.7,7.69h5.77V23.27H13.47a5.78,5.78,0,0,1,0-11.55l1,0,.21-.72A5.8,5.8,0,0,1,20.2,6.91a5.62,5.62,0,0,1,2.35.51l.77.34.44-.71a10.57,10.57,0,0,1,19.42,4.16l.15,1.13L44.42,12a5.77,5.77,0,1,1,1.76,11.27H40.41v1.92h5.77a7.7,7.7,0,0,0,7.69-7.69h1a2.88,2.88,0,0,1,2.88,2.88v26H1.92v-26A2.89,2.89,0,0,1,4.81,17.5Zm35.6,40.4H19.24V54.05H40.41Zm14.43-5.77h-50a2.9,2.9,0,0,1-2.89-2.89v-1h55.8v1A2.89,2.89,0,0,1,54.84,52.13Z"/><path class="cls-1" d="M30.78,38.84v-5H28.86v5a2.89,2.89,0,1,0,1.92,0Zm-1,3.67a1,1,0,1,1,1-1A1,1,0,0,1,29.82,42.51Z"/><path class="cls-1" d="M28.86,18.46h1.92V31.93H28.86Z"/><path class="cls-1" d="M38.48,22.31H36.56V37.7h9.79a2.89,2.89,0,1,0,0-1.93H38.48ZM49.06,35.77a1,1,0,1,1,0,1.93,1,1,0,0,1,0-1.93Z"/><path class="cls-1" d="M36.56,18.46h1.92v1.92H36.56Z"/><path class="cls-1" d="M10.58,39.62a2.88,2.88,0,0,0,2.71-1.92h9.8V27.12H21.16v8.65H13.29a2.88,2.88,0,1,0-2.71,3.85Zm0-3.85a1,1,0,1,1-1,1A1,1,0,0,1,10.58,35.77Z"/><path class="cls-1" d="M21.16,18.46h1.93v6.73H21.16Z"/></svg>