<svg id="Layer_1" data-name="Layer 1" xmlns="http://www.w3.org/2000/svg" viewBox="0 0 15.29 14.6"><title>speedometer</title><path fill="#ff7c00" d="M15.27,5.52a.41.41,0,0,0-.34-.29l-4.77-.68L8,.24A.42.42,0,0,0,7.63,0h0a.43.43,0,0,0-.38.24L5.13,4.57.36,5.28A.42.42,0,0,0,.13,6L3.59,9.35l-.8,4.76a.41.41,0,0,0,.17.41.44.44,0,0,0,.25.08.37.37,0,0,0,.2,0L7.67,12.3l4.27,2.23a.43.43,0,0,0,.19,0h0a.42.42,0,0,0,.43-.42s0-.07,0-.1l-.83-4.72L15.16,6A.41.41,0,0,0,15.27,5.52ZM11,8.88a.44.44,0,0,0-.12.38l.72,4.12L7.86,11.44a.44.44,0,0,0-.39,0l-3.7,2,.69-4.13a.42.42,0,0,0-.12-.37L1.34,6l4.14-.62a.43.43,0,0,0,.32-.23L7.64,1.38,9.5,5.13a.43.43,0,0,0,.32.23L14,6Z"/></svg>