<svg id="Layer_1" data-name="Layer 1" xmlns="http://www.w3.org/2000/svg" viewBox="0 0 41.09 41.09"><title>speedometer</title><path d="M4.37,31.38A18.45,18.45,0,1,0,36.78,13.76,18.24,18.24,0,0,0,34.07,10L34,9.92l2-2.5a.74.74,0,0,0-.11-1,.72.72,0,0,0-.53-.15.7.7,0,0,0-.48.26L33,8.91l-.1-.08A18.43,18.43,0,0,0,24.74,4.6l-.1,0V.84a.72.72,0,0,0-.71-.72H17.62a.72.72,0,0,0-.71.72V4.5l-.1,0a18.45,18.45,0,0,0-5,1.85A19.23,19.23,0,0,0,8.27,8.82l-.09.09L6.25,6.52a.7.7,0,0,0-.48-.26H5.69a.75.75,0,0,0-.45.16.72.72,0,0,0-.1,1l2,2.49L7.08,10A18.47,18.47,0,0,0,4.37,31.38Zm14-29.83h4.88V4.31l-.14,0a18.14,18.14,0,0,0-4.6,0h-.14ZM12.45,7.62A17,17,0,1,1,5.63,30.7,17.06,17.06,0,0,1,12.45,7.62Z"/><path d="M21,9.79h0A.84.84,0,0,0,21.85,9V8.52a.83.83,0,0,0-.81-.87.84.84,0,0,0-.86.81l0,.46A.85.85,0,0,0,21,9.79Z"/><path d="M13.4,11a.84.84,0,0,0,.74.44.84.84,0,0,0,.74-1.23l-.21-.41a.85.85,0,0,0-1.14-.34.84.84,0,0,0-.34,1.14Z"/><path d="M9.44,14.67l-.39-.24a.84.84,0,1,0-.89,1.42l.39.24a.8.8,0,0,0,.44.13.84.84,0,0,0,.45-1.55Z"/><path d="M7.79,22.16A.85.85,0,0,0,7,21.29H6.52a.84.84,0,0,0,0,1.68H7A.83.83,0,0,0,7.79,22.16Z"/><path d="M8.16,28.26l-.4.22a.84.84,0,0,0,.4,1.58.78.78,0,0,0,.39-.1L9,29.74a.83.83,0,0,0,.34-1.13A.84.84,0,0,0,8.16,28.26Z"/><path d="M13.83,33.44a.84.84,0,0,0-1.16.27l-.24.38a.85.85,0,0,0,.27,1.16.81.81,0,0,0,.45.13.83.83,0,0,0,.71-.4l.24-.39A.83.83,0,0,0,13.83,33.44Z"/><path d="M20.17,35.35a.85.85,0,0,0-.87.81v.46a.85.85,0,0,0,.81.87h0a.85.85,0,0,0,.84-.81v-.46A.85.85,0,0,0,20.17,35.35Z"/><path d="M27.75,34.19a.84.84,0,1,0-1.48.79l.22.4a.83.83,0,0,0,.74.45.9.9,0,0,0,.39-.1A.84.84,0,0,0,28,34.59Z"/><path d="M33,29.28,32.6,29a.84.84,0,0,0-.89,1.43l.39.24a.8.8,0,0,0,.44.13.85.85,0,0,0,.72-.4A.85.85,0,0,0,33,29.28Z"/><path d="M34.68,22.18l-.46,0a.84.84,0,0,0,0,1.68l.46,0h0a.84.84,0,0,0,0-1.68Z"/><path d="M32.59,17a.82.82,0,0,0,.4-.1l.4-.21a.84.84,0,0,0,.34-1.14.83.83,0,0,0-1.13-.34l-.41.21a.85.85,0,0,0-.34,1.14A.84.84,0,0,0,32.59,17Z"/><path d="M28.45,9.89a.83.83,0,0,0-1.16.27l-.24.39a.84.84,0,0,0,.27,1.15.8.8,0,0,0,.44.13.85.85,0,0,0,.72-.4l.24-.39A.84.84,0,0,0,28.45,9.89Z"/><path d="M18.06,23.27a2.5,2.5,0,0,0,1.15,1.56,2.54,2.54,0,0,0,1.31.37A2.58,2.58,0,0,0,22.71,24a2.55,2.55,0,0,0-.87-3.49,2.63,2.63,0,0,0-1.31-.36,2.58,2.58,0,0,0-1.65.6l-.07.06-6.54-4.15a.67.67,0,0,0-.38-.11.72.72,0,0,0-.38,1.32L18.07,22l0,.09A2.52,2.52,0,0,0,18.06,23.27Zm1.51-1.19a1.1,1.1,0,0,1,1-.54,1,1,0,0,1,.57.16,1.11,1.11,0,0,1-.58,2.07,1.12,1.12,0,0,1-1.08-.85A1.12,1.12,0,0,1,19.57,22.08Z"/></svg>